<svg id="e9cd6e87-af1b-42bd-a046-b5bf15af3b59" data-name="‘лой_1" xmlns="http://www.w3.org/2000/svg" viewBox="0 0 2855.9 1666.59"><defs><style>.a87dcbc3-8677-444f-946d-32a6a2999c48{fill:#cde3fd;}.b560cf9b-6b5f-406b-8d2b-3c7c9ea199b6,.f55f2563-ed66-4874-b268-3154a7621b9b{fill:#fff;}.b560cf9b-6b5f-406b-8d2b-3c7c9ea199b6{opacity:0.8;}.a9042cca-f8a8-4a7a-a356-b15863df277e,.bd1b930c-9690-4cdf-9837-ebc0810cfa6a{fill:#8aa8ed;}.a9042cca-f8a8-4a7a-a356-b15863df277e{opacity:0.2;}.a0c88dda-91e9-4718-bc8f-1db6dcafe3a7{fill:#233862;}.a0867e37-e9d1-493b-9a38-627a98a28ff6{fill:#ffb27d;}.ffde97ad-d0cb-48d9-81db-148d920657fa{fill:#ed975d;}.b86fc413-d173-4f54-bca8-f62c41e3c1d3{fill:#f99746;}.f08b2806-249b-4e46-88a1-d4a275ef2d7b{fill:#ed7d2b;}.bfbe97c3-57bc-4fc4-82f9-031a2350a1e0{fill:#2b478b;}.a0e0393b-2e3f-4ce3-a9de-172695c8e51b{fill:#b64c41;}.b8b604fd-33bd-49d2-b81e-491aff2b5920{fill:#2c3a64;}.a5317ba1-a2af-4c30-a6e8-55599f179883{fill:#35488b;}.a19fbccd-b02f-4719-ac13-79f93647557d{fill:#2c5693;}.b7499355-ef88-4b68-accc-f0498f8ebb40{fill:#163560;}.f2eae50e-ef6f-4549-89bd-2e984d57d422{fill:#1c468a;}.be6fe4c2-b6c5-46b1-8028-f316a7744bdd{fill:#2e3552;}</style></defs><path class="a87dcbc3-8677-444f-946d-32a6a2999c48" d="M2927.13,1839.59l-2512.83-.85s-4.7-6.41-12.74-18.65q-2.31-3.51-5-7.68c-3.95-6.17-8.45-13.37-13.41-21.59l-2.05-3.41c-4.59-7.69-9.56-16.19-14.8-25.48-.6-1.07-1.22-2.14-1.82-3.23C263.71,1578.93,65.75,1118.49,317.4,604.81c319-651.22,1055.48-307.89,1338.72-367.09C2444.13,73,3036,185,2828.34,1018.42,2727.86,1421.76,3134.15,1436.42,2927.13,1839.59Z" transform="translate(-194.91 -173)"/><rect class="b560cf9b-6b5f-406b-8d2b-3c7c9ea199b6" x="527.31" y="210.88" width="1589.8" height="1447.58"/><path class="a9042cca-f8a8-4a7a-a356-b15863df277e" d="M1755.38,1641.51l-.17,0c-.89-.22-5-1.57-7.68-8.06-1.78-4.27-2.32-7.78-4-12l-6.7-11.57c-7-9.23-9.47-7.07-9.47-7.07s-1.83,2.35-4.54,5.45c-4.47,5.12-11.33,12.25-16.18,14.08a14.12,14.12,0,0,0-6.94,5.42,13.26,13.26,0,0,0-2.06,4.76h0c-26.78-51-111.37-125.1-140.2-141.19-14.78-8.26-12.44-40.12-9.19-79.52,2.22-26.71,4.86-56.87,2.89-85.52,11.55-2.7,18.25-4.77,18.25-4.77s-15.07-63.57-24.38-94.36c-8.6-28.44-38.13-91.91-42.59-101.45,0-.15,0-.41.09-.73l1.67-13.55a2,2,0,0,1,.11-.32,219,219,0,0,0,15.57-17.66s.35,2.42,1,6.56c3.49,22.85,36.68,41.59,48.56,43.34,27.25,4,44-3.72,56.35-16.78a86,86,0,0,0,7.52-9.13c40.54,3,82.85,3.49,82.85,3.49s10.65.64,20.28,1.93,15.62-1.29,17.34-3.43,11.55-3.85,11.34-6.63-16,.86-19,0,6.85-8.13,12-9,24.4-12.83,24.4-14.54-18-1.29-28.67,0-37.62,14.54-37.62,14.54l-70.27-18.15c.62-7.75-.86-14.65-4.45-19.75-13.93-19.78-49-7.25-72.89-74a.66.66,0,0,0,0-.09c-12.73-35.6-22.89-62.51-23.92-64.49-3-5.7-38.32-12.78-44.87-13.1-4.75-.26,4.11-20.43-4.28-22.72a10.19,10.19,0,0,0-5.4.21c-.1-1.12-.18-2.24-.26-3.34a83.5,83.5,0,0,0,11.47,3c-.73-1.38-.6-5.07-.6-5.07.2,2.42,3.81,5,3.81,5,2.74.72,9.17-.57,9.17-.57s-6-1.59-8-12.74c7.67-9.11,15.37-25.1,20.76-39.31h0s20.74-27.14,11.07-48.16c-4.43-9.63-9.52-12.34-13.87-12.32-.56-.72-1.13-1.39-1.69-2a68.59,68.59,0,0,0-24.77-17.69c-.36-.16-.72-.29-1.07-.44a55.78,55.78,0,0,0-14.8-5.61c-60.39-30.07-97.67,86.07-90.07,95.76S1422,863,1422,863a20,20,0,0,1-1.57-4.72c2.8,3.87,10.81,7,17.94,9.07-.72,3.08-1.5,6.3-2.33,9.46-.92,3.53-2.47,8.85-4.25,14.53l-.75-.25c-3.68-1.17-8.09,5.28-7.49,9.11.74,4.53-2,11.56-4.63,13.89,0,0-42.52,8-49.07,20.44-1.65,3.15-2.64,13.14-3.4,26.51-4.36,10.44-4.57,37.95-3.19,67.82-1.59,24.59-4.14,45.53-9.27,50.27-2.78,2.56-19.93,2.64-20,2.65-17.94-9.92-39.09-22.71-47.83-32.22.29-8.42.4-23.68-2.45-27-4-4.66-20.15-18.58-23.23-17.62s9,20.77,8.29,26.5c-.27,2.11-.83,5.7-1.09,9.8-2.32-2.5-5.86-6.09-7.28-6.33-2.2-.37-4-1.08-1,2.88s9.71,18.73,9.71,18.73v0a19.06,19.06,0,0,0,2.06,4.37l-.45.39s30.46,43,67.1,71.25c3.73,12,10.24,23.49,21.34,30.84q-3.78,12.44-8.91,29.27c-13.49,44.14-8.8,128.83-8.8,128.83,2.67,1,5.36,1.94,8.06,2.84,1.6,18.55,3.68,42,6,66.91,1,10.39,2,21,3,31.72.3,3.06.59,6.11.9,9.17,6,61.08,12.82,120.92,17.49,134.93,8.3,24.89,34.61,158,44.42,208.26a2,2,0,0,0-.66.15l-.1.09s-13.55,24.16-16.3,31.93c-4.88,13.83-18.24,11.62-22.7,16-1.81,1.78-5.59,11.31-3.36,12.42l47.23-.44s4.71.86,8-12.63c.22-.89,4.85-5.83,11.42-8.35,4.32-1.66,7.84-2.09,12.12-3.6l11.75-6.37c9.43-6.74,7.34-9.26,7.34-9.26s-2.29-1.9-5.31-4.69c-5-4.62-11.91-11.68-13.61-16.58a14.07,14.07,0,0,0-5.22-7.09,13.71,13.71,0,0,0-4.42-2.14c3.22-36.16,16.27-194.76-.68-217-4.64-6.1-3.81-20.61-.27-40.12,2.29-12.58,5.71-27.24,9.5-43,10.36,36.5,20.82,65.65,29.13,72,25.67,19.69,224.13,122.2,224.13,122.2h0s24.55,12.85,32.4,15.37c14,4.48,21.26,14,25.78,18.31a8.12,8.12,0,0,0,6.87,2.16c3.69-.58,8.46-1.76,9.51-4Z" transform="translate(-194.91 -173)"/><path class="a0c88dda-91e9-4718-bc8f-1db6dcafe3a7" d="M1573.73,820.54s-28.87,17-11.15,50c0,0-25.28-4.63-30.73-12.17a19.52,19.52,0,0,0,1.57,4.72s-23.24-5.26-30.84-15,29.68-125.83,90.08-95.76c0,0,55.23,10.25,33.6,71.57s-1.19,66.73-1.19,66.73-6.43,1.29-9.17.57c0,0-3.61-2.6-3.82-5,0,0-.13,3.69.61,5.07,0,0-22.62-3.75-31.43-15S1567.16,832.63,1573.73,820.54Z" transform="translate(-194.91 -173)"/><path class="a0867e37-e9d1-493b-9a38-627a98a28ff6" d="M1532.05,919.25l-.1,0C1531.77,919.26,1531.81,919.25,1532.05,919.25Z" transform="translate(-194.91 -173)"/><path class="a0867e37-e9d1-493b-9a38-627a98a28ff6" d="M1602.21,899.05c.85,7.6,1.86,14.42,2.31,17.67,1,7.28-68.07,2.54-72.47,2.53,3.07-1.34,12.44-31.06,15.41-42.4,3.59-13.75,6.42-28.61,6.42-28.61l48.78,3.08,2.9.18a169.83,169.83,0,0,0-4,18.76c-.12.78-.24,1.58-.34,2.35C1600.38,879.08,1601.16,889.66,1602.21,899.05Z" transform="translate(-194.91 -173)"/><path class="a0c88dda-91e9-4718-bc8f-1db6dcafe3a7" d="M1547.15,843.32s-7.91-25.08-6.31-44.31c1.15-13.73,20.69-60.58,67.69-40.64a68.59,68.59,0,0,1,24.77,17.69c8.71,10,19.92,29.49-8.42,67.37l-8.24,13.16Z" transform="translate(-194.91 -173)"/><path class="ffde97ad-d0cb-48d9-81db-148d920657fa" d="M1602.21,899.05c-34.12-10-48.6-49.41-48.6-49.41,14.43.42,33.23,10.44,48,20.62-.12.78-.24,1.58-.34,2.35C1600.38,879.08,1601.16,889.66,1602.21,899.05Z" transform="translate(-194.91 -173)"/><path class="a0867e37-e9d1-493b-9a38-627a98a28ff6" d="M1604.62,885.2S1543,870,1553.06,831.72s8.91-66,48.7-57.86,43.55,24.71,43.29,38.3S1620.92,888.18,1604.62,885.2Z" transform="translate(-194.91 -173)"/><path class="a0c88dda-91e9-4718-bc8f-1db6dcafe3a7" d="M1630,780.32s-28.68,40.41-56.23,40.22-36.91-10.07-36.91-10.07,24-10.48,35.32-36.83C1572.14,773.64,1622.93,755.62,1630,780.32Z" transform="translate(-194.91 -173)"/><path class="a0c88dda-91e9-4718-bc8f-1db6dcafe3a7" d="M1624.83,782.86s9.9,13.34,10.38,23.89-3.45,31,2.58,31.82c0,0,20.73-27.14,11.07-48.16C1638.61,768.13,1624.83,782.86,1624.83,782.86Z" transform="translate(-194.91 -173)"/><path class="a0c88dda-91e9-4718-bc8f-1db6dcafe3a7" d="M1626.76,785s-24.41,43.8-60.94,50.23c0,0,40.19-20.25,51.16-50.52S1626.76,785,1626.76,785Z" transform="translate(-194.91 -173)"/><path class="f55f2563-ed66-4874-b268-3154a7621b9b" d="M1595,860.68s.77,5.83,4.49,7.2,13.57,3.87,14.57,3.26,4.69-5.16,4.69-5.16S1603.22,860,1595,860.68Z" transform="translate(-194.91 -173)"/><path class="a0867e37-e9d1-493b-9a38-627a98a28ff6" d="M1572,1445.73c-.78,3.28-1.56,6.51-2.33,9.72-4.65,19.32-9,37.23-11.7,52.21-3.54,19.51-4.38,34,.27,40.12,19.15,25.1,0,224.31,0,224.31l-21.79,22.45s-37.88-196.68-48.15-227.5c-4.68-14-11.48-73.85-17.49-134.93-.31-3.06-.61-6.11-.9-9.17-1-10.68-2-21.33-3-31.72-5.39-57.79-9.42-107.28-9.42-107.28s40.18-28.25,76.68-31.4c21.51-1.87,41.74,5,51.73,31.4C1600.41,1322.38,1585.67,1388.77,1572,1445.73Z" transform="translate(-194.91 -173)"/><path class="ffde97ad-d0cb-48d9-81db-148d920657fa" d="M1572,1445.73c-29.85-21.56-71.85-59.93-87.09-122.82-2.92-31.27,21.74-61,49.25-70.37,21.51-1.87,41.74,5,51.73,31.4C1600.41,1322.38,1585.67,1388.77,1572,1445.73Z" transform="translate(-194.91 -173)"/><path class="a0867e37-e9d1-493b-9a38-627a98a28ff6" d="M1680.86,1065.85l146.71,37.9v17.13s-146-1.71-155.42-18S1680.86,1065.85,1680.86,1065.85Z" transform="translate(-194.91 -173)"/><path class="a0867e37-e9d1-493b-9a38-627a98a28ff6" d="M1827.57,1630.52l-6.86,28.32s-198.47-102.51-224.14-122.2c-10.31-7.91-23.93-50.86-36.55-99.45-18.8-72.42-35.37-157.36-35.37-157.36s27.83-107,102.31-41.51c44.57,39.19,37.63,114.7,32.75,173.44-3.25,39.4-5.58,71.26,9.2,79.52,28.82,16.09,113.42,90.2,140.19,141.19Z" transform="translate(-194.91 -173)"/><path class="a0867e37-e9d1-493b-9a38-627a98a28ff6" d="M1490.9,1154.88c-51.83-13.19-108.81-93.6-108.81-93.6l14.59-12.66c15.11,17.81,77.94,48.49,77.94,48.49-.34-16.3.09-31.17,1.12-44.7,7-92,41.64-122.63,51.11-129.35a24.1,24.1,0,0,1,2.4-1.55s0,.67.09,1.93c.14,2.74.39,8.24.65,15.8C1531.91,995.54,1534.21,1165.91,1490.9,1154.88Z" transform="translate(-194.91 -173)"/><path class="b86fc413-d173-4f54-bca8-f62c41e3c1d3" d="M1531.94,1044.49c-2.68,65.62-12.5,130.6-41.07,126.42-35-5.12-44.14-37.8-46-62.1a139.84,139.84,0,0,1,.51-27s17.24-.08,20-2.65c13.23-12.23,9.3-132.14,15.85-144.59s49.07-20.45,49.07-20.45S1534.62,979.63,1531.94,1044.49Z" transform="translate(-194.91 -173)"/><path class="f08b2806-249b-4e46-88a1-d4a275ef2d7b" d="M1531.94,1044.49c-2.68,65.62-12.5,130.6-41.07,126.42-35-5.12-44.14-37.8-46-62.1,8.6-.43,23.73-2.53,29.75-11.7,8.61-13.13,35.48-97.66,35.48-97.66S1520.66,1018.42,1531.94,1044.49Z" transform="translate(-194.91 -173)"/><path class="b86fc413-d173-4f54-bca8-f62c41e3c1d3" d="M1752.85,1065.85c9.5,13.48,4.27,39.62-15.64,60.67-12.36,13.06-29.1,20.79-56.35,16.78-11.88-1.75-45.07-20.49-48.56-43.34-.63-4.14-1-6.56-1-6.56s-15.11,15.13-15.67,18c-.26,1.29-1.56,12.72-1.77,14.28-.23,1.89,1.11,8.84,1.11,8.84s-72.18,31.57-131.86-4.38c0,0-17-145.82-4.8-170.09,6.08-12,40.14-35.53,52-45.9,2.66-2.33,5.37-9.36,4.64-13.89-.6-3.83,3.8-10.28,7.49-9.11,7.13,2.29,27.32,12.27,41.52,8.46,7.07-1.88,16-10.05,22.9-8.18,8.38,2.29-.47,22.46,4.28,22.72,6.54.32,41.9,7.4,44.87,13.1,1,2,11.18,28.89,23.92,64.49a.66.66,0,0,1,0,.09C1703.87,1058.6,1738.92,1046.07,1752.85,1065.85Z" transform="translate(-194.91 -173)"/><path class="f08b2806-249b-4e46-88a1-d4a275ef2d7b" d="M1631.32,1093.4s-1.76-55.63-6.25-55-69.34,63.1-53.93,88.07S1631.32,1093.4,1631.32,1093.4Z" transform="translate(-194.91 -173)"/><path class="bfbe97c3-57bc-4fc4-82f9-031a2350a1e0" d="M1680.86,1321.47s-25,7.72-61.82,12.82c-45.58,6.3-109.31,8.57-166.22-12.82,0,0-4.69-84.69,8.79-128.83s19.79-65.28,19.79-65.28,54,13.54,108.9,3a178.59,178.59,0,0,0,23-6s33.85,71.86,43.15,102.66S1680.86,1321.47,1680.86,1321.47Z" transform="translate(-194.91 -173)"/><path class="a0c88dda-91e9-4718-bc8f-1db6dcafe3a7" d="M1680.86,1321.47s-25,7.72-61.82,12.82c-67.51-38.29-34.59-199.38-34.59-199.38,2-1.63,4-3.13,5.85-4.51a178.59,178.59,0,0,0,23-6s33.85,71.86,43.15,102.66S1680.86,1321.47,1680.86,1321.47Z" transform="translate(-194.91 -173)"/><path class="a0e0393b-2e3f-4ce3-a9de-172695c8e51b" d="M1538.78,1143.3c-40,0-56.52-13.78-57.74-14.71l-2.59-18.85c.38.28,54.08,32.53,137.2,1.64l-1.77,14.28C1581.92,1137.54,1559.57,1143.3,1538.78,1143.3Z" transform="translate(-194.91 -173)"/><path class="a0867e37-e9d1-493b-9a38-627a98a28ff6" d="M1827.57,1103.75s26.92-13.26,37.62-14.54,28.68-1.71,28.68,0-19.26,13.68-24.4,14.54-15,8.14-12,9,18.83-2.78,19,0-9.63,4.49-11.34,6.63-7.7,4.71-17.33,3.43-20.29-1.93-20.29-1.93Z" transform="translate(-194.91 -173)"/><path class="bfbe97c3-57bc-4fc4-82f9-031a2350a1e0" d="M1827.57,1630.52l-6.86,28.32s-198.47-102.51-224.14-122.2c-10.31-7.91-23.93-50.86-36.55-99.45,16.93,3.48,53.52,5.33,99.69-25.43-3.25,39.4-5.58,71.26,9.2,79.52,28.82,16.09,113.42,90.2,140.19,141.19Z" transform="translate(-194.91 -173)"/><path class="b86fc413-d173-4f54-bca8-f62c41e3c1d3" d="M1866.8,1641.51l-.18,0c-.89-.22-5-1.57-7.67-8.06-1.79-4.27-2.32-7.78-4-12l-6.7-11.57c-7-9.23-9.47-7.07-9.47-7.07s-1.83,2.35-4.54,5.45c-4.47,5.12-11.32,12.25-16.18,14.08a14.14,14.14,0,0,0-6.93,5.42,13.41,13.41,0,0,0-2.07,4.76s14.39,2.51,13.14,9.6c-2.44,13.72-1.87,16.22-1.62,16.67l.09.09s24.54,12.85,32.39,15.37c14,4.48,21.26,14,25.79,18.31a8.1,8.1,0,0,0,6.87,2.16c3.68-.58,8.46-1.76,9.51-4Z" transform="translate(-194.91 -173)"/><path class="a0c88dda-91e9-4718-bc8f-1db6dcafe3a7" d="M1558.22,1547.78c19.15,25.1,0,224.31,0,224.31l-21.79,22.45s-37.88-196.68-48.15-227.5c-4.68-14-11.48-73.85-17.49-134.93,18.15,8.1,62.45,25.74,98.86,23.34-4.65,19.32-9,37.23-11.7,52.21C1554.41,1527.17,1553.57,1541.68,1558.22,1547.78Z" transform="translate(-194.91 -173)"/><path class="b86fc413-d173-4f54-bca8-f62c41e3c1d3" d="M1580.12,1804.52l-11.76,6.37c-4.27,1.51-7.79,1.94-12.12,3.6-6.57,2.52-11.19,7.46-11.41,8.35-3.32,13.49-8,12.63-8,12.63l-47.22.44c-2.23-1.11,1.54-10.64,3.35-12.42,4.47-4.4,17.83-2.19,22.71-16,2.74-7.77,16.3-31.93,16.3-31.93l.09-.09c.46-.24,3-.74,16.62,2.1,7,1.46,10-12.85,10-12.85a13.35,13.35,0,0,1,4.7,2.2,14.07,14.07,0,0,1,5.22,7.09c1.69,4.9,8.62,12,13.6,16.58,3,2.79,5.32,4.69,5.32,4.69S1589.55,1797.78,1580.12,1804.52Z" transform="translate(-194.91 -173)"/><path class="a0867e37-e9d1-493b-9a38-627a98a28ff6" d="M1397.29,1055.21s1.8-28-2.19-32.62S1375,1004,1371.88,1005s9,20.77,8.29,26.5-3.61,22.2,3.28,30.74S1397.29,1055.21,1397.29,1055.21Z" transform="translate(-194.91 -173)"/><path class="a0867e37-e9d1-493b-9a38-627a98a28ff6" d="M1380.48,1056.55s-6.79-14.78-9.72-18.73-1.16-3.25,1-2.88,9.45,8.72,9.45,8.72Z" transform="translate(-194.91 -173)"/><path class="f08b2806-249b-4e46-88a1-d4a275ef2d7b" d="M2376.72,887.15s-95.66,9.51-124.44,2.42-100-64-100-64l-19.93,14.81s52.7,98.33,91.38,112.41,143.72,15.55,143.72,15.55Z" transform="translate(-194.91 -173)"/><path class="b8b604fd-33bd-49d2-b81e-491aff2b5920" d="M2723.2,1748.68s18.91,17.69,15.15,30.17-20.93,20.75-23.32,36-11.68,23.56-20,23.52l-39.74-.18s-6.08-10.78,8.75-14,20.5-21.11,19.65-37.78,1.56-38.89,1.56-38.89l31.53-7.27Z" transform="translate(-194.91 -173)"/><path class="b8b604fd-33bd-49d2-b81e-491aff2b5920" d="M2490.07,1793.26s4.25,40.06-4.11,44.19l-107.49-.48s-.14-12.73,17-15.43,47.29-12.75,52.48-35.42S2490.07,1793.26,2490.07,1793.26Z" transform="translate(-194.91 -173)"/><path class="a5317ba1-a2af-4c30-a6e8-55599f179883" d="M2402.56,1227.16s5.31,70.22,11.54,154.63c8.47,114.67,18.65,255.51,19.6,282.19,1.64,46.33,8.72,120.45,8.72,120.45s17.51,17.68,52.75,10.42c0,0,31.84-105.62,41.3-217.48l.45-5.53c8.84-113.88,22.88-353.7,22.88-353.7Z" transform="translate(-194.91 -173)"/><path class="b8b604fd-33bd-49d2-b81e-491aff2b5920" d="M2402.56,1227.16s5.31,70.22,11.54,154.63l122.37,195.58.45-5.53c8.84-113.88,22.88-353.7,22.88-353.7Z" transform="translate(-194.91 -173)"/><path class="a5317ba1-a2af-4c30-a6e8-55599f179883" d="M2428.21,1235.61s100.27,254.68,166.42,374.46,86.83,153.2,86.83,153.2,38.27-15.11,41.79-25.51c0,0-24.46-230.76-68.86-287.19-25.09-31.88-54.31-127.36-55.55-160.7s-8.58-99.37-8.58-99.37Z" transform="translate(-194.91 -173)"/><path class="a0867e37-e9d1-493b-9a38-627a98a28ff6" d="M2440.19,852.57s-91.73,47.62-81,34.5c3.42-4.19.21-19-1.86-24q-1.49-3.59-2.74-6.81a245.17,245.17,0,0,1-8.36-24.46L2370,800.38l16.11-21.31a119.89,119.89,0,0,0,7.92,24.26C2410.66,840.13,2440.19,852.57,2440.19,852.57Z" transform="translate(-194.91 -173)"/><path class="ffde97ad-d0cb-48d9-81db-148d920657fa" d="M2394,803.33s-5.74,36.37-39.41,52.92a245.17,245.17,0,0,1-8.36-24.46L2370,800.38C2385.37,800.31,2394,803.33,2394,803.33Z" transform="translate(-194.91 -173)"/><path class="b86fc413-d173-4f54-bca8-f62c41e3c1d3" d="M2605.5,1239.59c-29.24,32.45-220.22,56.67-214.93,32.32a270.59,270.59,0,0,0,6.09-48.57c.2-5.33.26-11,.15-17a362.68,362.68,0,0,0-11-80.63,448,448,0,0,0-14.36-46.61c-1.42-3.86-2.89-7.74-4.45-11.68a378.2,378.2,0,0,1-18.38-60.86c-8.16-38.66-8.86-74.74.52-97.11.05-.1,9.14-23.69,9.19-23.81,40.93-13,56.63-51.93,56.63-51.93s127.94,35.28,179.68,220.45C2594.62,1054.13,2630.92,1211.33,2605.5,1239.59Z" transform="translate(-194.91 -173)"/><path class="f08b2806-249b-4e46-88a1-d4a275ef2d7b" d="M2468,965.05s-12.56,107.34-82.21,160.63a448,448,0,0,0-14.36-46.61c7.55-25.39,16.16-46.2,23.86-55.07C2426.57,987.87,2468,965.05,2468,965.05Z" transform="translate(-194.91 -173)"/><path class="a0867e37-e9d1-493b-9a38-627a98a28ff6" d="M2329.46,839.4s66.27-3.2,63.65-44.45,4.15-69.43-38.28-69.13-49.64,16.56-52.11,30.54S2312.15,839.17,2329.46,839.4Z" transform="translate(-194.91 -173)"/><path class="bfbe97c3-57bc-4fc4-82f9-031a2350a1e0" d="M2424.12,730.37c.68-.67,2.16-1.14,5.37-1a12.77,12.77,0,0,0-5.83-2.2c-.29-4.57-2-12.75-9.49-15.32a9.74,9.74,0,0,1,4.07,7.41c-8.1-10-26.52-18.25-79.41-18.35-69.71-.14-50.58,46.76-42.06,52.87s32.3-6.76,48.89-4,17.76,27.49,23.15,31.32,3.65-2.3,11.61-5.19,7.62,10.07,4.72,18.28,6.72,20.13,6.72,20.13l11.6-10.77c11.6-10.76,25.69-59.26,21.71-70.17C2424.82,732.33,2424.47,731.35,2424.12,730.37Z" transform="translate(-194.91 -173)"/><path class="f55f2563-ed66-4874-b268-3154a7621b9b" d="M2339.9,814.83s-2.15,5.83-4.86,7-11.62,1.88-13.35.72S2317,817,2317,817,2331.24,813.08,2339.9,814.83Z" transform="translate(-194.91 -173)"/><rect class="a19fbccd-b02f-4719-ac13-79f93647557d" x="2274.44" y="928.46" width="19.28" height="283.95" transform="translate(-190.11 -183.18) rotate(0.26)"/><path class="a19fbccd-b02f-4719-ac13-79f93647557d" d="M2417.32,1835.3c1.87.22,3.51-.21,3.12-3.19l-89.76-635.7-12.89,8,96.16,627.9A3.45,3.45,0,0,0,2417.32,1835.3Z" transform="translate(-194.91 -173)"/><rect class="a19fbccd-b02f-4719-ac13-79f93647557d" x="2242.86" y="1196.21" width="87.62" height="16.21" transform="translate(-189.48 -183.26) rotate(0.26)"/><path class="a19fbccd-b02f-4719-ac13-79f93647557d" d="M2373.12,1523.77l-4.71.49a8.4,8.4,0,0,1-9.27-7.33l-1.35-12.39a8.31,8.31,0,0,1,7.47-9.09l4.71-.49a8.39,8.39,0,0,1,9.27,7.33l1.36,12.39A8.33,8.33,0,0,1,2373.12,1523.77Z" transform="translate(-194.91 -173)"/><path class="a19fbccd-b02f-4719-ac13-79f93647557d" d="M2150.84,1834.1c-1.86.2-3.51-.24-3.08-3.22L2243.23,1196l12.81,8.16-101.8,627A3.45,3.45,0,0,1,2150.84,1834.1Z" transform="translate(-194.91 -173)"/><path class="a19fbccd-b02f-4719-ac13-79f93647557d" d="M2197.88,1522.91l4.68.53a8.37,8.37,0,0,0,9.29-7.21l1.45-12.31a8.28,8.28,0,0,0-7.35-9.11l-4.68-.54a8.37,8.37,0,0,0-9.29,7.22l-1.45,12.31A8.27,8.27,0,0,0,2197.88,1522.91Z" transform="translate(-194.91 -173)"/><path class="b7499355-ef88-4b68-accc-f0498f8ebb40" d="M2300.14,933.26l-33.63-.15a3.85,3.85,0,0,1-3.83-3.86l.07-14.55,41.31.18-.06,14.56A3.85,3.85,0,0,1,2300.14,933.26Z" transform="translate(-194.91 -173)"/><rect class="a0c88dda-91e9-4718-bc8f-1db6dcafe3a7" x="2250.51" y="895.24" width="65.1" height="20.66" transform="translate(4367.11 1648.4) rotate(-179.74)"/><rect class="a0c88dda-91e9-4718-bc8f-1db6dcafe3a7" x="2270.15" y="869.3" width="26.03" height="27.56" transform="translate(4367.41 1603.42) rotate(-179.74)"/><rect class="a0c88dda-91e9-4718-bc8f-1db6dcafe3a7" x="2040.6" y="768.75" width="15.15" height="81.49" transform="translate(-191.23 -182.24) rotate(0.26)"/><rect class="f2eae50e-ef6f-4549-89bd-2e984d57d422" x="2055.75" y="770.25" width="65.7" height="77.9" transform="translate(-191.25 -182.38) rotate(0.26)"/><rect class="f2eae50e-ef6f-4549-89bd-2e984d57d422" x="2121.34" y="772.35" width="65.7" height="74.3" transform="translate(-191.25 -182.68) rotate(0.26)"/><rect class="f2eae50e-ef6f-4549-89bd-2e984d57d422" x="2187.03" y="782.65" width="65.7" height="54.27" transform="translate(-191.25 -182.97) rotate(0.26)"/><rect class="a0c88dda-91e9-4718-bc8f-1db6dcafe3a7" x="2234.28" y="759.63" width="81.01" height="109.98" transform="translate(-191.22 -183.22) rotate(0.26)"/><rect class="a0c88dda-91e9-4718-bc8f-1db6dcafe3a7" x="2315.44" y="769.72" width="7.49" height="26.76" transform="translate(-191.36 -183.43) rotate(0.26)"/><rect class="a0c88dda-91e9-4718-bc8f-1db6dcafe3a7" x="2319.18" y="767.97" width="7.49" height="30.29" transform="translate(-191.36 -183.45) rotate(0.26)"/><rect class="a0c88dda-91e9-4718-bc8f-1db6dcafe3a7" x="2268.49" y="745.64" width="14.33" height="14" transform="translate(-191.5 -183.22) rotate(0.26)"/><rect class="a0c88dda-91e9-4718-bc8f-1db6dcafe3a7" x="2249.09" y="731.73" width="52.08" height="15.21" transform="translate(-191.56 -183.23) rotate(0.26)"/><path class="a0867e37-e9d1-493b-9a38-627a98a28ff6" d="M2294.39,890.72s-9.37-35.31-12.52-40.42-20.68-19.59-22.31-19-2.4,2.07-.93,5.39,8.38,13.16,6.75,13.17-23.59-27.26-29.89-24.38-8.91,25.52-2.27,40,37.54,33.54,39,35.8C2284.55,920.42,2294.39,890.72,2294.39,890.72Z" transform="translate(-194.91 -173)"/><path class="b86fc413-d173-4f54-bca8-f62c41e3c1d3" d="M2295.31,888.46s-26.89,9.86-24.26,26c1,6,55,185.76,86.82,187.89s133.51-144.18,126.74-184.94-53.37-59.84-70.3-51-35.59,127.74-42.54,125.72S2295.31,888.46,2295.31,888.46Z" transform="translate(-194.91 -173)"/><path class="a0867e37-e9d1-493b-9a38-627a98a28ff6" d="M2102.12,759.51s-21.42,15.3-13,19.31,26.44,4,34.61-3.88S2117.53,756.6,2102.12,759.51Z" transform="translate(-194.91 -173)"/><path class="bfbe97c3-57bc-4fc4-82f9-031a2350a1e0" d="M421.15,904.39l-.31,3.75a94.3,94.3,0,0,0-16.82.7,118.09,118.09,0,0,0-20.8,4.45c-19,5.94-45.2,19.82-62.4,52.32-15.1,28.53,1,76.14,18.13,126.53,20.88,61.59,44.56,131.39,19.64,186.43C334.85,1331,320.89,1381.63,318.2,1425c-3,48.7,7.92,86.29,32.48,111.73,17.73,18.36,32.9,50.56,40.59,86.12,8.06,37.28,7.08,73.87-2.68,100.4-5.17,14-12.69,25.22-22.28,33.34-.6-1.14-1.22-2.29-1.82-3.46,8.82-7.67,15.74-18.13,20.55-31.18,21.29-57.84-2.88-147.18-37.06-182.59-25.34-26.24-36.62-64.79-33.54-114.58,2.72-43.85,16.79-95,40.72-147.77,24.3-53.69.88-122.74-19.78-183.67-18.12-53.4-33.76-99.54-17.89-129.5,17.84-33.7,45.06-48.07,64.75-54.2A121.13,121.13,0,0,1,404,905,93.18,93.18,0,0,1,421.15,904.39Z" transform="translate(-194.91 -173)"/><rect class="f55f2563-ed66-4874-b268-3154a7621b9b" x="379.21" y="499.86" width="87.18" height="455.83"/><rect class="a0c88dda-91e9-4718-bc8f-1db6dcafe3a7" x="312.39" y="824.93" width="17.81" height="262.23"/><path class="a0c88dda-91e9-4718-bc8f-1db6dcafe3a7" d="M642.43,1834.84c1.72.2,3.24-.2,2.86-3l-85.53-586.69-11.87,7.49,91.41,579.46A3.18,3.18,0,0,0,642.43,1834.84Z" transform="translate(-194.91 -173)"/><rect class="a0c88dda-91e9-4718-bc8f-1db6dcafe3a7" x="283.77" y="1072.19" width="80.92" height="14.97"/><path class="b86fc413-d173-4f54-bca8-f62c41e3c1d3" d="M600.3,1546.39l-4.35.48a7.78,7.78,0,0,1-8.59-6.74l-1.29-11.43a7.68,7.68,0,0,1,6.86-8.43l4.35-.48a7.77,7.77,0,0,1,8.59,6.74l1.3,11.43A7.7,7.7,0,0,1,600.3,1546.39Z" transform="translate(-194.91 -173)"/><path class="a0c88dda-91e9-4718-bc8f-1db6dcafe3a7" d="M396.33,1834.84c-1.72.2-3.24-.2-2.87-3L479,1245.19l11.87,7.49-91.41,579.46A3.18,3.18,0,0,1,396.33,1834.84Z" transform="translate(-194.91 -173)"/><path class="b86fc413-d173-4f54-bca8-f62c41e3c1d3" d="M438.47,1546.32l4.32.47a7.72,7.72,0,0,0,8.55-6.7l1.29-11.37a7.64,7.64,0,0,0-6.83-8.38l-4.32-.47a7.72,7.72,0,0,0-8.55,6.7l-1.29,11.37A7.64,7.64,0,0,0,438.47,1546.32Z" transform="translate(-194.91 -173)"/><path class="a0c88dda-91e9-4718-bc8f-1db6dcafe3a7" d="M300.94,812.31H339.1a0,0,0,0,1,0,0v13.44a3.55,3.55,0,0,1-3.55,3.55H304.49a3.55,3.55,0,0,1-3.55-3.55V812.31A0,0,0,0,1,300.94,812.31Z"/><rect class="a0c88dda-91e9-4718-bc8f-1db6dcafe3a7" x="209.11" y="703.09" width="82.98" height="58.46"/><polygon class="bfbe97c3-57bc-4fc4-82f9-031a2350a1e0" points="373.18 493.59 373.33 960.93 290.64 824.43 290.64 669.13 373.18 493.59"/><path class="bfbe97c3-57bc-4fc4-82f9-031a2350a1e0" d="M568.06,666.59v467.82H668V666.59Zm89.58,457.46h-79.2V677h79.2Z" transform="translate(-194.91 -173)"/><ellipse class="bd1b930c-9690-4cdf-9837-ebc0810cfa6a" cx="781.9" cy="878.9" rx="209.16" ry="206.87"/><ellipse class="a0c88dda-91e9-4718-bc8f-1db6dcafe3a7" cx="747.52" cy="892.65" rx="48.27" ry="47.74"/><rect class="a0c88dda-91e9-4718-bc8f-1db6dcafe3a7" x="742.59" y="929.39" width="15.71" height="228.82"/><path class="a0c88dda-91e9-4718-bc8f-1db6dcafe3a7" d="M1056.72,1832.67c1.52.17,2.86-.18,2.53-2.58l-75.46-511.94-10.47,6.53L1054,1830.32A2.8,2.8,0,0,0,1056.72,1832.67Z" transform="translate(-194.91 -173)"/><rect class="a0c88dda-91e9-4718-bc8f-1db6dcafe3a7" x="717.35" y="1145.15" width="71.39" height="13.06"/><path class="b86fc413-d173-4f54-bca8-f62c41e3c1d3" d="M1019.56,1581l-3.84.42a6.84,6.84,0,0,1-7.58-5.88l-1.14-10a6.72,6.72,0,0,1,6.06-7.35l3.83-.42a6.84,6.84,0,0,1,7.58,5.88l1.15,10A6.73,6.73,0,0,1,1019.56,1581Z" transform="translate(-194.91 -173)"/><path class="a0c88dda-91e9-4718-bc8f-1db6dcafe3a7" d="M839.59,1832.67c-1.51.17-2.86-.18-2.52-2.58l75.46-511.94,10.47,6.53-80.65,505.64A2.8,2.8,0,0,1,839.59,1832.67Z" transform="translate(-194.91 -173)"/><path class="b86fc413-d173-4f54-bca8-f62c41e3c1d3" d="M876.77,1580.91l3.82.41a6.79,6.79,0,0,0,7.54-5.84l1.14-9.93a6.68,6.68,0,0,0-6-7.31l-3.82-.41a6.79,6.79,0,0,0-7.54,5.84l-1.14,9.93A6.68,6.68,0,0,0,876.77,1580.91Z" transform="translate(-194.91 -173)"/><path class="a0c88dda-91e9-4718-bc8f-1db6dcafe3a7" d="M732.49,918.38h33.66a0,0,0,0,1,0,0v11.71A3.11,3.11,0,0,1,763,933.2H735.61a3.11,3.11,0,0,1-3.11-3.11V918.38A0,0,0,0,1,732.49,918.38Z"/><rect class="a0c88dda-91e9-4718-bc8f-1db6dcafe3a7" x="494.35" y="195.5" width="1652.9" height="60.36"/><rect class="a0c88dda-91e9-4718-bc8f-1db6dcafe3a7" x="454.53" y="210.73" width="1732.54" height="29.9"/><path class="bfbe97c3-57bc-4fc4-82f9-031a2350a1e0" d="M942.72,1070c-.19,0-19.25,3.06-40.09,18.52-19.22,14.27-43.94,42.36-52.59,95.21-6.41,39.24-7.95,99.91-9.58,164.15-2.67,105.73-5.43,215.05-30.42,246-19.21,23.77-12.79,46.14-6,69.8,7,24.16,14.11,49.13-5.23,77.18-19,27.5-52,17.87-90.19,6.71-40.32-11.76-90.5-26.41-140.63-2.31-61.65,29.64-137.3,39.22-184.83,42.26l-2.05-3.65c47.06-2.87,123.33-12.24,185.24-42,51.44-24.74,102.39-9.86,143.33,2.08,38.34,11.18,68.61,20,86-5.23,18.33-26.58,11.4-50.68,4.71-74-6.76-23.57-13.75-47.92,6.69-73.23,24.17-29.93,26.92-138.61,29.58-243.71,1.63-64.37,3.16-125.16,9.63-164.66,8.87-54.2,34.39-83.08,54.23-97.75,21.57-15.95,40.8-19,41.6-19.09Z" transform="translate(-194.91 -173)"/><rect class="be6fe4c2-b6c5-46b1-8028-f316a7744bdd" x="43.93" y="1658.36" width="2811.97" height="8.23" rx="3.35"/><path class="bfbe97c3-57bc-4fc4-82f9-031a2350a1e0" d="M934.54,1067.62a5.25,5.25,0,1,1,5.25,5.26A5.25,5.25,0,0,1,934.54,1067.62Z" transform="translate(-194.91 -173)"/></svg>