<svg xmlns="http://www.w3.org/2000/svg" viewBox="0 0 500 500"><defs><style>.a10ab36a-c37d-4d2e-a4df-def85736f8ad,.b94e2c86-4aa2-497a-89f7-39e9f68d5f39{fill:#fff;}.b0b2feef-1071-4b1c-a37f-6b66b7f2b0bc{fill:#d9d9d9;opacity:0.59;}.b2b10bb0-61d1-45a6-9ab6-45f33976a0f1,.f8970b52-3801-42ee-8cb7-6a8291ab820b{fill:#f7b05e;}.a031b544-cd55-442c-a90b-ac74a6cefad2{fill:#f9bdbf;}.b34e5df9-79d5-45c9-93bd-ed1d4df7fe67{fill:#070824;}.aec09d01-7726-44e4-af55-73fedb7fe685{fill:#eda4a6;}.b0707d7c-5173-4fc1-b293-5e32402c8b3a{fill:#260e2e;}.b607e912-391a-4c26-8140-fd666fe3aed6{fill:#ecedeb;}.f44db340-48dd-48cb-a92b-a5d3c25e9dce{fill:#2f589a;}.a29f8935-862c-4253-9888-f92d81868182,.a30c0f52-3baf-4907-aaea-3bad27b78947,.aeb718de-9e29-4036-9dbe-2c3dc8e1e531,.b173dbf8-df89-457c-8381-641ce2ccb925,.b7527aeb-b8ff-432b-b77f-e4f0ac1229af,.b958eeb8-dc6c-490d-a770-37670e32d072,.ea56f3dc-546e-473e-9bff-397cd2addf3d,.fc70d6cb-cd63-498b-a19f-e92350cb7933{fill:none;}.b173dbf8-df89-457c-8381-641ce2ccb925,.fc70d6cb-cd63-498b-a19f-e92350cb7933{stroke:#ecedeb;}.a10ab36a-c37d-4d2e-a4df-def85736f8ad,.a29f8935-862c-4253-9888-f92d81868182,.a30c0f52-3baf-4907-aaea-3bad27b78947,.aeb718de-9e29-4036-9dbe-2c3dc8e1e531,.b173dbf8-df89-457c-8381-641ce2ccb925,.b7527aeb-b8ff-432b-b77f-e4f0ac1229af,.b958eeb8-dc6c-490d-a770-37670e32d072,.ea56f3dc-546e-473e-9bff-397cd2addf3d,.fc70d6cb-cd63-498b-a19f-e92350cb7933{stroke-miterlimit:10;}.a29f8935-862c-4253-9888-f92d81868182,.a30c0f52-3baf-4907-aaea-3bad27b78947,.aeb718de-9e29-4036-9dbe-2c3dc8e1e531,.fc70d6cb-cd63-498b-a19f-e92350cb7933{stroke-width:0.23px;}.a10ab36a-c37d-4d2e-a4df-def85736f8ad,.aeb718de-9e29-4036-9dbe-2c3dc8e1e531,.b7527aeb-b8ff-432b-b77f-e4f0ac1229af,.b958eeb8-dc6c-490d-a770-37670e32d072{stroke:#070824;}.afe2e780-2b70-47d6-ad57-793292549aca{fill:#0b0d3b;}.b958eeb8-dc6c-490d-a770-37670e32d072{stroke-width:0.92px;}.a10ab36a-c37d-4d2e-a4df-def85736f8ad{stroke-width:0.78px;}.a842c3e3-bfff-4816-9925-b3f859f127fb{fill:#e6a357;}.f897fa92-4820-4739-a1c3-253cfca401d2,.fc6d2b31-f018-4a61-93c0-88c57c9258c1{fill:#d64a39;}.ada8d5ef-8b26-4cb8-aa3a-2692c4f993fe{fill:#f65541;}.a29f8935-862c-4253-9888-f92d81868182{stroke:#f65541;}.bd9d2f2b-8d47-4584-8ec4-5a07c76e3f28{fill:#ff9487;}.ed9180c2-5bad-4dcd-bbf6-5d0e74a5dbf1{fill:#d1954f;}.a51541b6-bf43-4f87-9d58-f7fe30d00ba7,.feffc652-7493-4ace-a785-c99023f18e26{fill:#f26e5e;}.ea56f3dc-546e-473e-9bff-397cd2addf3d{stroke:#240a37;stroke-width:0.18px;}.feffc652-7493-4ace-a785-c99023f18e26{opacity:0.6;}.b173dbf8-df89-457c-8381-641ce2ccb925,.b7527aeb-b8ff-432b-b77f-e4f0ac1229af{stroke-width:0.21px;}.f897fa92-4820-4739-a1c3-253cfca401d2{opacity:0.58;}.b94d8bd2-62ca-4d59-994d-cd5c100189e1{fill:#eea987;}.f42237e0-5ec8-4194-8b0b-68c199f8a440{fill:#fedb9e;}.f8970b52-3801-42ee-8cb7-6a8291ab820b{opacity:0.54;}.e0a5b884-c5f5-43cc-a146-83e1d6adebaf{fill:#eea886;}.f727dab6-69f3-4bbd-b3b1-5f3fa0e5bd18{fill:#2f4563;}.a30c0f52-3baf-4907-aaea-3bad27b78947{stroke:#2f589a;}</style></defs><g id="e82f9df2-c019-4a83-ab83-5416348ef6f4" data-name="BACKGROUND"><rect class="b94e2c86-4aa2-497a-89f7-39e9f68d5f39" width="500" height="500"/></g><g id="e5c6b67b-6376-48ee-9390-591c4c056169" data-name="OBJECTS"><path class="b0b2feef-1071-4b1c-a37f-6b66b7f2b0bc" d="M71.06,200.59c0,2.33-11.43,4.22-25.53,4.22S20,202.92,20,200.59s11.43-4.22,25.53-4.22S71.06,198.26,71.06,200.59Z"/><path class="b0b2feef-1071-4b1c-a37f-6b66b7f2b0bc" d="M85.8,218.48c0,2.33-11.42,4.22-25.52,4.22s-25.53-1.89-25.53-4.22,11.43-4.22,25.53-4.22S85.8,216.15,85.8,218.48Z"/><path class="b0b2feef-1071-4b1c-a37f-6b66b7f2b0bc" d="M124.94,218.7c0,2.33-11.43,4.22-25.53,4.22S73.88,221,73.88,218.7s11.43-4.22,25.53-4.22S124.94,216.37,124.94,218.7Z"/><path class="b2b10bb0-61d1-45a6-9ab6-45f33976a0f1" d="M86.1,49.18H223.63v114.4A63.93,63.93,0,0,1,204.9,208.8H63.18l9.93-9.94a46.39,46.39,0,0,0,13.59-33Z"/><path class="a031b544-cd55-442c-a90b-ac74a6cefad2" d="M80.55,139.79c-1.08-.06-1.08-2.4-1.74-2.16S68.34,146,68.34,146l-3.29-2.87a19,19,0,0,1,1.68-1.74A107.48,107.48,0,0,1,78.15,134a9.84,9.84,0,0,1,3.83-.36c.84.06,3.24,1,3.42,2.22s-1.26,2.39-1.26,2.39c-1.32.18-1-1.14-1.14-1.44s-1.13-.12-1.79.36S81.63,139.85,80.55,139.79Z"/><path class="b34e5df9-79d5-45c9-93bd-ed1d4df7fe67" d="M61.06,153c-.54-1-.06-2.93.9-5.39A16.15,16.15,0,0,1,65.13,143s5.45.18,3.83,2.45-.3,7.12-1.43,8.92S61.6,154,61.06,153Z"/><path class="aec09d01-7726-44e4-af55-73fedb7fe685" d="M74.75,145.19l-1.87,4.93-5.52-3.75s1.8-2.13,1.52-4.09C68.88,142.28,74,144,74.75,145.19Z"/><path class="a031b544-cd55-442c-a90b-ac74a6cefad2" d="M82,138.36v0c3.63-9.62-4.76-9.45-4.76-9.45-2.66-.42-8,.73-8.37,4s-2.2,9.87,2.33,13c3.81,2.65,5.94,2.76,8.89-3.2a1.75,1.75,0,0,0,.94-.07C82.06,142.34,82,138.36,82,138.36Z"/><path class="b0707d7c-5173-4fc1-b293-5e32402c8b3a" d="M67.72,140.39c-1.57-3-2.15-7-.3-10,1.45-2.37,4.35-3.1,7-2.82a12.29,12.29,0,0,1,3.84,1.12c1.34.61,2.81,1.48,4.35,1.32,2.9-.3,3.08,1.37,2.67,2.59s-1.85.75-1.85.75,1.37,1.84.78,3.16-3-.91-3-.91c-1.27,1.44-2.13,1.82-2.8,1.8l-.14.07v-.07c-.68-.06-1.15-.52-1.66-.6-1-.16-3.39,1.95-3.39,1.95l.08-.28c.11-.48.24-1.45-.43-1.88A1.63,1.63,0,0,0,70.54,138a8.35,8.35,0,0,0,.48,2.14,4,4,0,0,1-1.33,1.62,7.85,7.85,0,0,1-1.9.66A2.06,2.06,0,0,0,67.72,140.39Z"/><path class="b34e5df9-79d5-45c9-93bd-ed1d4df7fe67" d="M98.83,211.42a12.65,12.65,0,0,0,3.47-.2,17,17,0,0,1,1.79-.58s2.56,3.58,4.64,4.15,7,1.18,6.83,3.16-5.68,2.45-7.82,1.88-7.11.24-8-1.56S99.2,212.32,98.83,211.42Z"/><path class="b607e912-391a-4c26-8140-fd666fe3aed6" d="M99.57,217.33c.88,1.79,5.84,1,8,1.55s7.29.12,7.78-1.7a1.11,1.11,0,0,1,.22.77c-.18,2-5.68,2.45-7.82,1.88s-7.11.24-8-1.56a4,4,0,0,1-.34-1.36A4.09,4.09,0,0,0,99.57,217.33Z"/><path class="b34e5df9-79d5-45c9-93bd-ed1d4df7fe67" d="M49.76,211.77c-.1.48-2.34,1.21-1.95,3s1.51,3.89,1.07,4.42-2.33.15-3.74-1.41-1.24-5.86-.92-7.24c.43-1.89.82-4.56,1.36-5.44s3.2.34,3.93.92a7,7,0,0,0-.58,3.5C49.27,210.94,49.85,211.28,49.76,211.77Z"/><path class="b607e912-391a-4c26-8140-fd666fe3aed6" d="M45.84,217.79c-1.41-1.55-1.25-5.86-.93-7.24.44-1.89.83-4.56,1.36-5.44a.65.65,0,0,1,.46-.26c-.53-.08-1,0-1.15.26-.54.88-.93,3.55-1.36,5.44-.32,1.38-.49,5.69.92,7.24a4.21,4.21,0,0,0,3.37,1.6A5,5,0,0,1,45.84,217.79Z"/><path class="f44db340-48dd-48cb-a92b-a5d3c25e9dce" d="M57.31,184.43l6.86.38c4.06-.46,9.86-.91,9.86-.91s20.13-2.76,23.5,1.73,9,27.3,9,27.3-7.48,1.73-7.48.84-8.29-20.14-8.29-20.14a102.76,102.76,0,0,0-13.12,2.19c.62,9.4,2.9,16.61,2.39,18.84-.9,3.93-2.69,4.47-6.73,3.8s-24.22-6-24.22-6c-1-.09-1-6.49.47-6.4L68.59,208s-3.25-8.79-7.73-13.27A13.28,13.28,0,0,1,57.31,184.43Z"/><path class="b34e5df9-79d5-45c9-93bd-ed1d4df7fe67" d="M62.46,149.55A33.09,33.09,0,0,1,64.7,146a1.27,1.27,0,0,1,1.65-.31A27.51,27.51,0,0,0,69,147.06a10.11,10.11,0,0,1,3.9,3.06,14.08,14.08,0,0,1,.54,1.6s-4.53-2.15-6.58-2.42A14.69,14.69,0,0,0,62.46,149.55Z"/><path class="b34e5df9-79d5-45c9-93bd-ed1d4df7fe67" d="M68.11,186.2a34.72,34.72,0,0,1-9.8-.21,1.44,1.44,0,0,1-1.21-1.45c0-1.8,0-5.35,0-8.89-.13-5.72,2.11-19.37,2.83-21.89a17.77,17.77,0,0,1,1.66-4c3.28-3.89,8.27-1.85,11,.75,3,2.82,5.21,10.69,4.56,16.43s1.47,16.91,1.47,16.91A50.69,50.69,0,0,1,68.11,186.2Z"/><path class="fc70d6cb-cd63-498b-a19f-e92350cb7933" d="M75.92,170.48s.7,10.52,1.37,12.33c0,0-9.39,3.32-17,2.21"/><path class="aeb718de-9e29-4036-9dbe-2c3dc8e1e531" d="M66.79,187.31a4.54,4.54,0,0,1-3.51,5.21"/><path class="aeb718de-9e29-4036-9dbe-2c3dc8e1e531" d="M79.45,184.18s13.56-.9,16.6,1.07"/><path class="aeb718de-9e29-4036-9dbe-2c3dc8e1e531" d="M77.6,195.82a16.23,16.23,0,0,0-3.11-.86"/><path class="aeb718de-9e29-4036-9dbe-2c3dc8e1e531" d="M97.53,187s7.27,18.64,7.77,25.17"/><path class="aeb718de-9e29-4036-9dbe-2c3dc8e1e531" d="M77.29,198.35s1.93,12.62,2.16,15"/><path class="b34e5df9-79d5-45c9-93bd-ed1d4df7fe67" d="M83.92,135h-.81a.72.72,0,0,1-.72-.72v-6.78a.77.77,0,0,1,.14-.44l1.38-1.81a.72.72,0,0,1,.57-.29h3.86a.72.72,0,0,1,.72.72v5.78a.73.73,0,0,1-.72.73h-3a.72.72,0,0,0-.72.72v1.37A.73.73,0,0,1,83.92,135Z"/><path class="b34e5df9-79d5-45c9-93bd-ed1d4df7fe67" d="M98,137.22l4.43-.55v.4l-2.35.91a.43.43,0,0,0-.36.42.44.44,0,0,0,.36.43l2,.29a.44.44,0,0,1,.36.43v1.16h0a.43.43,0,0,1-.1.27.46.46,0,0,1-.26.15l-2,.3a.42.42,0,0,0,0,.84l2.35.91v.47L98,143.1a.43.43,0,0,1-.43-.43v-5A.42.42,0,0,1,98,137.22Z"/><rect class="b34e5df9-79d5-45c9-93bd-ed1d4df7fe67" x="82.39" y="134.32" width="2.21" height="11.89" transform="translate(166.98 280.52) rotate(180)"/><rect class="b34e5df9-79d5-45c9-93bd-ed1d4df7fe67" x="84.6" y="137.56" width="13.47" height="5.41" transform="translate(182.66 280.52) rotate(180)"/><rect class="b34e5df9-79d5-45c9-93bd-ed1d4df7fe67" x="86.34" y="136.86" width="2.29" height="6.6" transform="translate(174.97 280.32) rotate(180)"/><rect class="b34e5df9-79d5-45c9-93bd-ed1d4df7fe67" x="90.97" y="136.86" width="3.47" height="6.6" transform="translate(185.42 280.32) rotate(180)"/><rect class="b34e5df9-79d5-45c9-93bd-ed1d4df7fe67" x="88.1" y="124.42" width="1.91" height="8.24" transform="translate(178.12 257.09) rotate(180)"/><path class="a031b544-cd55-442c-a90b-ac74a6cefad2" d="M91.13,143.41c.46,0,4.35,0,5.1-.06s-1.4,1.85-3.52,2.32-3,2.18-3.56,3.32-3.88,11-3.88,11L81.09,158s2.39-4.67,3.17-6.09,2.38-4.95,2.33-6.06A3.48,3.48,0,0,1,87,143.6c.35-.48,1.18-.46,2-.95s2.4-3.34,2.83-2.15S90.66,143.43,91.13,143.41Z"/><path class="afe2e780-2b70-47d6-ad57-793292549aca" d="M72.14,165.36c-3.77-2.83-7.55-9.46-9.09-12.36a3.17,3.17,0,0,1,.06-3.18,4.55,4.55,0,0,1,6.45-1.48C72,149.9,77.42,159,78.7,159.49s1.57-2.16,1.57-2.16l6.08,3s-2.69,4.61-4.15,5.7C80.44,167.33,77,169,72.14,165.36Z"/><path class="fc70d6cb-cd63-498b-a19f-e92350cb7933" d="M64.16,155s5.62,9.88,9.26,11.2"/><line class="fc70d6cb-cd63-498b-a19f-e92350cb7933" x1="80.75" y1="158.42" x2="85.12" y2="160.62"/><path class="b34e5df9-79d5-45c9-93bd-ed1d4df7fe67" d="M47.64,43.6V90.16L42.15,73.83a24.05,24.05,0,0,1,.23-15.91Z"/><line class="b958eeb8-dc6c-490d-a770-37670e32d072" x1="44.27" y1="74.64" x2="44.27" y2="201.71"/><polyline class="b958eeb8-dc6c-490d-a770-37670e32d072" points="31.46 201.71 44.27 167.44 56.53 201.71"/><rect class="b34e5df9-79d5-45c9-93bd-ed1d4df7fe67" x="35.75" y="64.74" width="6.85" height="5.65" rx="2.61"/><polygon class="a10ab36a-c37d-4d2e-a4df-def85736f8ad" points="55.44 88.36 47.64 90.16 47.64 42.54 55.44 44.19 55.44 88.36"/><path class="a842c3e3-bfff-4816-9925-b3f859f127fb" d="M172,191c0,3.2-11.43,5.8-25.53,5.8S121,194.2,121,191s11.43-5.79,25.52-5.79S172,187.8,172,191Z"/><path class="b0707d7c-5173-4fc1-b293-5e32402c8b3a" d="M144.51,63.71s3-4,8.78-.61,2.68,11.57,3.83,14,3,4.69,5.61,8.69-3.22,10.76-7.91,9.73-8.54-4.71-10.31-11.18S141.18,67.53,144.51,63.71Z"/><path class="a031b544-cd55-442c-a90b-ac74a6cefad2" d="M144.45,88.07c-.51-.2-2.19-1.81-3.74.55a16.28,16.28,0,0,0-2.17,6.95c-.15,1.47-1.46,8.44-1.75,9.59s-1,1.68-2.48,3-9.41,10-10.07,10.48l2.22,1.74s11.8-8.2,13-9.62a16,16,0,0,0,2.83-5.89c.94-3,3.86-10.5,4-11.68S147.13,89.14,144.45,88.07Z"/><path class="a031b544-cd55-442c-a90b-ac74a6cefad2" d="M126.31,116.49s-1.24,1.64-1.76,1.73a12,12,0,0,0-1.67.5,11.21,11.21,0,0,0-2.24.51,15,15,0,0,1-1.29,1.48c-.37.23-1.17.61-1,.88s1,.1,1,.1-.33.22-.25.51c.16.57.56.61.56.61s-.2.42-.06.63a1,1,0,0,0,.68.51.81.81,0,0,0,.26.59,1,1,0,0,0,.88.18s.32.53.71.45a3,3,0,0,0,1-.49,14.38,14.38,0,0,0,3.39-3.82,10.09,10.09,0,0,1,2.44-3Z"/><path class="b34e5df9-79d5-45c9-93bd-ed1d4df7fe67" d="M152.27,173.55s1.7,4.69,2.76,5.2,2.67,3.19,1.73,4.51-6.4,4.56-6.83,5.48S148.18,175.63,152.27,173.55Z"/><path class="b607e912-391a-4c26-8140-fd666fe3aed6" d="M153.69,176.88c-.75-1.5-1.42-3.33-1.42-3.33a1.32,1.32,0,0,0-.2.12A17.18,17.18,0,0,0,153.69,176.88Z"/><path class="b607e912-391a-4c26-8140-fd666fe3aed6" d="M156,179.59a2.49,2.49,0,0,1,0,2.37c-.82,1.16-5.13,3.79-6.46,5,.12,1.24.28,2,.39,1.74.43-.92,5.9-4.16,6.83-5.48C157.45,182.3,156.78,180.63,156,179.59Z"/><path class="fc6d2b31-f018-4a61-93c0-88c57c9258c1" d="M141.7,114.69c-.82,3.15-2.23,12.31-2.7,14.56-.62,3-4.16,12.87-4.4,15.66s-1.44,4.81.15,6.72,5.79,8.88,7.07,10.63a44.42,44.42,0,0,1,2.19,3.93c.42.81.87,1.68,1.31,2.56,1.76,3.49,3.49,7,3.49,7l1.84-7.42s-1.6-44.47-5.91-53.68Z"/><path class="ada8d5ef-8b26-4cb8-aa3a-2692c4f993fe" d="M159.31,112.19l-17.61,2.5c-.26,0-.38,3.35-.41,3.66-.51,5.65-.16,11.31-.07,17,.08,4.86-.54,9.87.62,14.65.33,1.38.7,2.77,1,4.17.67,3.12,1.33,6.25,1.93,9.38s1.69,22.16,1.69,22.16a6.41,6.41,0,0,0,4.65-.78s.29-8.35,1.47-12.63a35.9,35.9,0,0,0-.39-16.89c-1.35-4.34.18-8.78,1.89-12.77a69.77,69.77,0,0,0,3-7.49c.86-2.87,1.61-5.78,2.36-8.68.7-2.7,1.49-5.56,1.27-8.42C160.62,117.43,160,112.09,159.31,112.19Z"/><path class="b34e5df9-79d5-45c9-93bd-ed1d4df7fe67" d="M151.11,184.9a11,11,0,0,1-3.1.26,3.32,3.32,0,0,0-1.8.13S144,189.18,142,190.2s-7.16,2.65-6.57,4.69,6.48,1.45,8.62.42,7.55-1.17,8.11-3.23S150.9,185.92,151.11,184.9Z"/><path class="b607e912-391a-4c26-8140-fd666fe3aed6" d="M152.11,191.05c-.56,2.06-6,2.2-8.11,3.23s-7.66,1.58-8.54-.25a1.28,1.28,0,0,0-.08.86c.59,2.05,6.48,1.45,8.62.42s7.55-1.17,8.11-3.23a4.57,4.57,0,0,0,.09-1.51A3.41,3.41,0,0,1,152.11,191.05Z"/><path class="b607e912-391a-4c26-8140-fd666fe3aed6" d="M159.31,112.19c-.27-1.27-2.21-8.19-2.08-8.91.3-1.66,1.85-5.2,2.24-7.24s2-9.62.91-11-5.63-2.19-6.17-2.72a4,4,0,0,1-.7-1.93,32.82,32.82,0,0,1-.16-4l-5.2,2.9c.37,1.59-.62,4.19-.62,4.19s-1.89,1.92-2.64,2.91-4.85,6-5.69,8.5c-.95,2.88,1.13,4.39,1.57,5.92s.9,11.67.44,13.91C146.91,114.78,154.11,114.07,159.31,112.19Z"/><path class="aec09d01-7726-44e4-af55-73fedb7fe685" d="M154.14,82.34s-3,5.28-6.9,5.53.23-4.42.23-4.42a9.36,9.36,0,0,0,.4-1.34,11,11,0,0,0,.21-1.2h0a7.58,7.58,0,0,0,0-1.65l5.31-3.78S153.11,81.16,154.14,82.34Z"/><path class="a031b544-cd55-442c-a90b-ac74a6cefad2" d="M148.87,80.87c-.92.14-3.52.33-5.88-5.29-2.88-6.87-.2-11.22,2.57-12.46s5.63-.73,7.82,2.73c0,0,1.64,2.71.86,8.24S149.85,80.72,148.87,80.87Z"/><path class="b0707d7c-5173-4fc1-b293-5e32402c8b3a" d="M149.06,66.92s-4.06,1-6.79,7.49c0,0-3.1-6.56,1-10.6,6.49-6.42,16.06,3.8,12.64,10.88-.18.37-1.63,1.72-1.62,1.88,0,0-.2-3.54-.75-4.27S151.67,72.37,149.06,66.92Z"/><path class="a031b544-cd55-442c-a90b-ac74a6cefad2" d="M152.48,71.16c.1-.54.6-.85,1-.36s.45,2.67-.29,3S152.28,72.27,152.48,71.16Z"/><path class="b607e912-391a-4c26-8140-fd666fe3aed6" d="M146.47,84.48s-6.2,2-7.53,7.45l2.4.89Z"/><path class="a031b544-cd55-442c-a90b-ac74a6cefad2" d="M156.77,84.4c-.51.2-2.84.16-2.37,2.95a16.25,16.25,0,0,0,3.13,6.58c.89,1.17,4.66,7.17,5.23,8.22s.39,1.93.2,3.87-.14,13.69-.27,14.53l2.81-.23s3.1-14,3-15.86a15.86,15.86,0,0,0-1.92-6.24c-1.38-2.88-4.31-10.32-5-11.31S159.46,83.37,156.77,84.4Z"/><path class="a031b544-cd55-442c-a90b-ac74a6cefad2" d="M162.77,117.58s.2,2-.12,2.46a11.15,11.15,0,0,0-.88,1.51c-.23.43-1.21,1.38-1.3,1.89a16.69,16.69,0,0,1,.06,2c-.12.42-.45,1.25-.13,1.32s.79-.6.79-.6-.08.38.17.54a.75.75,0,0,0,.83.07s.14.44.38.51a.94.94,0,0,0,.84-.1.85.85,0,0,0,.6.26.94.94,0,0,0,.76-.47s.6.17.83-.15a3.08,3.08,0,0,0,.37-1,14.62,14.62,0,0,0-.11-5.11,10.15,10.15,0,0,1-.21-3.82Z"/><path class="b607e912-391a-4c26-8140-fd666fe3aed6" d="M157.69,95.58s3.75-2.91,6.79-3.5c0,0-2.93-9.71-8.42-8.2C151.57,85.11,156.15,92.4,157.69,95.58Z"/><path class="a29f8935-862c-4253-9888-f92d81868182" d="M157.69,95.58s-2.49-5-3.24-5.93"/><path class="a29f8935-862c-4253-9888-f92d81868182" d="M140.42,92.48a34,34,0,0,1,2.29-3.08"/><path class="a29f8935-862c-4253-9888-f92d81868182" d="M141.56,100.56s6.53,1.32,10.88,0"/><path class="a29f8935-862c-4253-9888-f92d81868182" d="M142.3,113.93s11.33-.15,15.94-2.36"/><line class="fc70d6cb-cd63-498b-a19f-e92350cb7933" x1="142.3" y1="118.36" x2="142.3" y2="148.34"/><path class="fc70d6cb-cd63-498b-a19f-e92350cb7933" d="M143.78,152.39s4.39,22.58,3.63,30.06"/><path class="fc70d6cb-cd63-498b-a19f-e92350cb7933" d="M149.86,118.93a16.5,16.5,0,0,0,6.21,5.49"/><path class="fc70d6cb-cd63-498b-a19f-e92350cb7933" d="M139.93,132.09S135,145.18,135.33,149"/><path class="b0b2feef-1071-4b1c-a37f-6b66b7f2b0bc" d="M303.29,218.7c0,2.33-11.43,4.22-25.53,4.22s-25.53-1.89-25.53-4.22,11.43-4.22,25.53-4.22S303.29,216.37,303.29,218.7Z"/><ellipse class="b0b2feef-1071-4b1c-a37f-6b66b7f2b0bc" cx="454.47" cy="216.64" rx="25.53" ry="4.81"/><path class="bd9d2f2b-8d47-4584-8ec4-5a07c76e3f28" d="M306.37,51H428.75v68a128.41,128.41,0,0,0,37.6,90.77l.37.37h-198a128.36,128.36,0,0,0,37.6-90.77Z"/><path class="aec09d01-7726-44e4-af55-73fedb7fe685" d="M436,102.53c1-.41.25-2.62,1-2.6s12.61,4.55,12.61,4.55l2.19-3.78a17.57,17.57,0,0,0-2.15-1.1,105.74,105.74,0,0,0-13.19-3.28,9.89,9.89,0,0,0-3.74.89c-.77.33-2.73,2-2.51,3.2s2,1.86,2,1.86c1.3-.26.54-1.39.61-1.73s1-.48,1.82-.24S435,102.93,436,102.53Z"/><path class="fc6d2b31-f018-4a61-93c0-88c57c9258c1" d="M458.74,108.75c.18-1.14-.89-2.8-2.59-4.81a16.16,16.16,0,0,0-4.51-3.39s-5.09,1.92-2.83,3.55,2.58,6.65,4.23,8S458.56,109.88,458.74,108.75Z"/><path class="aec09d01-7726-44e4-af55-73fedb7fe685" d="M451.72,102.73l1.88,4.93,5.51-3.75s-1.8-2.14-1.51-4.09C457.6,99.82,452.51,101.53,451.72,102.73Z"/><path class="a031b544-cd55-442c-a90b-ac74a6cefad2" d="M444.51,95.9h0c-3.64-9.62,4.76-9.44,4.76-9.44,2.65-.42,8,.72,8.37,4s2.2,9.86-2.34,13c-3.81,2.65-5.94,2.75-8.88-3.2a1.77,1.77,0,0,1-.94-.08C444.41,99.88,444.51,95.9,444.51,95.9Z"/><path class="b0707d7c-5173-4fc1-b293-5e32402c8b3a" d="M458.76,97.92c1.56-3,2.14-7,.3-10-1.46-2.37-4.35-3.1-7-2.83a12,12,0,0,0-3.84,1.13c-1.35.61-2.82,1.48-4.35,1.32-2.9-.3-3.08,1.37-2.67,2.58s1.85.75,1.85.75-1.37,1.85-.78,3.17,3-.92,3-.92c1.27,1.44,2.13,1.82,2.8,1.81l.14.06,0-.06c.68-.06,1.16-.53,1.67-.61,1-.15,3.39,2,3.39,2a2.56,2.56,0,0,1-.08-.29c-.12-.48-.24-1.44.43-1.87a1.63,1.63,0,0,1,2.29,1.42,8.85,8.85,0,0,1-.48,2.14,3.91,3.91,0,0,0,1.33,1.62,7.85,7.85,0,0,0,1.9.66A2.08,2.08,0,0,1,458.76,97.92Z"/><path class="b34e5df9-79d5-45c9-93bd-ed1d4df7fe67" d="M469.74,209.08a12.79,12.79,0,0,1-3.45.45,18.23,18.23,0,0,0-1.87-.24s-1.84,4-3.78,5-6.68,2.46-6.12,4.37,6,1.35,8,.39,7-1.09,7.56-3S469.54,210,469.74,209.08Z"/><path class="b607e912-391a-4c26-8140-fd666fe3aed6" d="M470.11,215c-.53,1.93-5.55,2-7.56,3s-7.14,1.47-8-.23a1.16,1.16,0,0,0-.07.8c.55,1.9,6,1.35,8,.39s7-1.09,7.56-3a4.2,4.2,0,0,0,.08-1.4A2.66,2.66,0,0,1,470.11,215Z"/><path class="b34e5df9-79d5-45c9-93bd-ed1d4df7fe67" d="M457.71,206.43a12.79,12.79,0,0,1-3.45.45,18.23,18.23,0,0,0-1.87-.24s-1.84,4-3.78,5-6.68,2.46-6.12,4.37,6,1.35,8,.39,7-1.09,7.56-3S457.51,207.38,457.71,206.43Z"/><path class="b607e912-391a-4c26-8140-fd666fe3aed6" d="M458.08,212.38c-.53,1.92-5.55,2.05-7.56,3s-7.14,1.47-8-.23a1.16,1.16,0,0,0-.07.8c.55,1.91,6,1.35,8,.39s7-1.09,7.56-3a4.26,4.26,0,0,0,.08-1.41A3,3,0,0,1,458.08,212.38Z"/><path class="bd9d2f2b-8d47-4584-8ec4-5a07c76e3f28" d="M460.4,108.17,459,103.28a9.9,9.9,0,0,0-6.8,4.28l-.23,1.61S457.32,108.78,460.4,108.17Z"/><path class="b2b10bb0-61d1-45a6-9ab6-45f33976a0f1" d="M469.33,147.79s-16.09,1-21.3-2c0,0,8.4,31.48,10.65,37.85s4.74,26.63,4.74,26.63h6.79s-1.46-28.64-5.37-34.67C464.84,175.59,470.49,149.8,469.33,147.79Z"/><polygon class="ed9180c2-5bad-4dcd-bbf6-5d0e74a5dbf1" points="448.03 145.78 449.87 180.78 451.39 208.49 458.76 208.39 457.58 180.18 448.03 145.78"/><path class="a51541b6-bf43-4f87-9d58-f7fe30d00ba7" d="M469.56,148.51l-21.6.37a236,236,0,0,1,2.87-36.9c.34-2.1,1.73-6,6.48-5.49,4.31.44,7,5.5,8.8,12.31C469.05,129.75,469.56,148.51,469.56,148.51Z"/><path class="ea56f3dc-546e-473e-9bff-397cd2addf3d" d="M457.58,152s1.58,6,7,6.12"/><path class="b34e5df9-79d5-45c9-93bd-ed1d4df7fe67" d="M439.84,94.49h.81a.73.73,0,0,0,.73-.73V87a.78.78,0,0,0-.15-.44l-1.37-1.81a.73.73,0,0,0-.58-.29h-3.85a.73.73,0,0,0-.73.73V91a.73.73,0,0,0,.73.72h3a.73.73,0,0,1,.73.72v1.37A.73.73,0,0,0,439.84,94.49Z"/><path class="b34e5df9-79d5-45c9-93bd-ed1d4df7fe67" d="M425.77,96.67l-4.44-.55v.4l2.35.92a.43.43,0,0,1,0,.84l-2,.3a.43.43,0,0,0-.36.42v1.16h0a.48.48,0,0,0,.1.28.51.51,0,0,0,.26.14l2,.3a.43.43,0,0,1,0,.84l-2.35.92v.46l4.44-.55a.42.42,0,0,0,.42-.43v-5A.42.42,0,0,0,425.77,96.67Z"/><rect class="b34e5df9-79d5-45c9-93bd-ed1d4df7fe67" x="439.17" y="93.77" width="2.21" height="11.89"/><rect class="b34e5df9-79d5-45c9-93bd-ed1d4df7fe67" x="425.7" y="97.01" width="13.47" height="5.41"/><rect class="b34e5df9-79d5-45c9-93bd-ed1d4df7fe67" x="435.13" y="96.31" width="2.29" height="6.6"/><rect class="b34e5df9-79d5-45c9-93bd-ed1d4df7fe67" x="429.32" y="96.31" width="3.47" height="6.6"/><rect class="b34e5df9-79d5-45c9-93bd-ed1d4df7fe67" x="433.75" y="83.87" width="1.91" height="8.24"/><path class="a031b544-cd55-442c-a90b-ac74a6cefad2" d="M432.64,102.87c-.47,0-4.35-.06-5.1-.07s1.39,1.85,3.51,2.32,3,2.18,3.57,3.32,3.87,11,3.87,11l4.18-2s-2.39-4.66-3.16-6.09-2.38-4.94-2.33-6.06a3.47,3.47,0,0,0-.37-2.25c-.35-.48-1.18-.46-2-.94s-2.41-3.35-2.84-2.16S433.1,102.89,432.64,102.87Z"/><path class="a51541b6-bf43-4f87-9d58-f7fe30d00ba7" d="M451.62,124.81c3.77-2.83,7.55-9.45,9.09-12.36a3.17,3.17,0,0,0-.06-3.18,4.55,4.55,0,0,0-6.45-1.48c-2.44,1.56-7.86,10.65-9.14,11.15s-1.57-2.16-1.57-2.16l-6.08,3s2.7,4.61,4.15,5.7C443.33,126.79,446.72,128.49,451.62,124.81Z"/><path class="ea56f3dc-546e-473e-9bff-397cd2addf3d" d="M459.37,181.84c1.3,6.88,4.25,22.61,5.05,27.45"/><line class="ea56f3dc-546e-473e-9bff-397cd2addf3d" x1="451.64" y1="153.01" x2="458.76" y2="178.57"/><path class="ea56f3dc-546e-473e-9bff-397cd2addf3d" d="M450.64,125.49s5.77-4.44,8.12-9.58"/><path class="ea56f3dc-546e-473e-9bff-397cd2addf3d" d="M449.82,129.4l-.56,16.95s10.42.88,15.3,0"/><line class="ea56f3dc-546e-473e-9bff-397cd2addf3d" x1="439.17" y1="120.7" x2="443.61" y2="118.32"/><line class="b958eeb8-dc6c-490d-a770-37670e32d072" x1="277.76" y1="92.86" x2="277.76" y2="219.93"/><polyline class="b958eeb8-dc6c-490d-a770-37670e32d072" points="264.95 219.93 277.76 185.66 290.03 219.93"/><path class="b34e5df9-79d5-45c9-93bd-ed1d4df7fe67" d="M281.13,108.87h0a9.43,9.43,0,0,1-9.43-9.43V69.65a9.43,9.43,0,0,1,9.43-9.42h0Z"/><polygon class="a10ab36a-c37d-4d2e-a4df-def85736f8ad" points="297.52 106.55 281.13 108.63 281.13 60.23 297.52 62.31 297.52 106.55"/><path class="b34e5df9-79d5-45c9-93bd-ed1d4df7fe67" d="M271.36,89.39h0a2.69,2.69,0,0,1-2.7-2.69V83a2.69,2.69,0,0,1,2.7-2.69h0A2.69,2.69,0,0,1,274.05,83V86.7A2.69,2.69,0,0,1,271.36,89.39Z"/><path class="feffc652-7493-4ace-a785-c99023f18e26" d="M393.34,195.56c0,2.75-13.46,5-30.08,5s-30.07-2.23-30.07-5,13.46-5,30.07-5S393.34,192.82,393.34,195.56Z"/><path class="a031b544-cd55-442c-a90b-ac74a6cefad2" d="M388.6,121.12s1.34,1.37,1.34,1.86a11.77,11.77,0,0,0,.24,1.61,10.09,10.09,0,0,0,.16,2.13,15.77,15.77,0,0,1,1.19,1.39c.15.38.4,1.17.67,1s.23-.9.23-.9.16.34.44.3c.55-.06.64-.43.64-.43s.36.24.57.15a.92.92,0,0,0,.56-.56.82.82,0,0,0,.58-.16.89.89,0,0,0,.29-.79s.53-.23.51-.59a2.6,2.6,0,0,0-.32-.94,13.36,13.36,0,0,0-3.06-3.66,9.35,9.35,0,0,1-2.38-2.66Z"/><path class="b34e5df9-79d5-45c9-93bd-ed1d4df7fe67" d="M374.51,159.29l-.63,26.54-.05,1.86a1.29,1.29,0,0,1-.23.88,1.2,1.2,0,0,1-.76.32,10.68,10.68,0,0,1-3,.07,1.43,1.43,0,0,1-.94-.37,1.54,1.54,0,0,1-.29-1c-1-17.06-.43-34.42-4.85-50.93-5.68,16.84-7.43,34.71-9.14,52.39a7.15,7.15,0,0,1-5.15.13c.15-22.5.31-45.09,3.57-67.36a1.68,1.68,0,0,1,.32-.93,1.77,1.77,0,0,1,.88-.45c6.25-1.72,12.88-1,19.3-.1.18,0,1.14,8.77,1.25,9.58a67.66,67.66,0,0,1,.47,9.33c-.05,6.66-.54,13.3-.7,20Z"/><path class="f44db340-48dd-48cb-a92b-a5d3c25e9dce" d="M366.63,83.47s11.06,2.1,12.05,5.14,2.92,10.18,5.57,17.94c1.59,4.65,9.35,15.13,9.35,15.13s-4.24,3.27-4.25,2.84-10.46-13.75-10.62-15.4-3.42-10-3.42-10-1.1,16.27-1,18.78.33,7.59.33,7.59-4.05,1.65-12,1.41c0,0-12.62-.16-10.55-4.05,1.57-2.94.14-22.47-.11-22.58s-4.52,5.48-4.07,6.53,11.91,4.61,11.91,4.61.36,1.21-1.35,4c0,0-17.09-4.6-17.18-5.63s6.6-21.4,8.91-22.51c3.32-1.6,12-4.18,12-4.18Z"/><path class="aec09d01-7726-44e4-af55-73fedb7fe685" d="M363.62,88a3.63,3.63,0,0,1-4.22-3.37,12.94,12.94,0,0,0,.16-6.15c-.72-3.53,6.81,1.13,6.81,1.13a10,10,0,0,0-.08,2,7.12,7.12,0,0,0,.12,1h0a5.07,5.07,0,0,0,.37,1.16S367.67,87.76,363.62,88Z"/><path class="a031b544-cd55-442c-a90b-ac74a6cefad2" d="M369,71.85v0c-.86-8.52-7.05-5.28-7.05-5.28-2.13.67-5.66,3.49-4.74,6.11s2,8.16,6.56,8.83c3.82.56,5.44-.15,5.43-5.67a1.52,1.52,0,0,0,.68-.41C370.54,74.78,369,71.85,369,71.85Z"/><path class="b34e5df9-79d5-45c9-93bd-ed1d4df7fe67" d="M358.55,66.38s4.36-5.47,8.89-2.63,1.76,3.91,1.76,3.91,2.6,1.28.84,2.35-8.81.28-8.81.28-.17,3.13.34,4.31l-.91.67L359,73.84l0,3.76s-5.3-6.81-3.95-8.94A4.85,4.85,0,0,1,358.55,66.38Z"/><path class="a031b544-cd55-442c-a90b-ac74a6cefad2" d="M360.31,73.11c-.4-.74-2.05-.43-1.72.79s2,2.94,2.46,2.51S360.86,74.14,360.31,73.11Z"/><line class="b7527aeb-b8ff-432b-b77f-e4f0ac1229af" x1="351.96" y1="100.24" x2="351.96" y2="94.48"/><line class="b7527aeb-b8ff-432b-b77f-e4f0ac1229af" x1="375.31" y1="99.09" x2="375.23" y2="94.48"/><line class="b7527aeb-b8ff-432b-b77f-e4f0ac1229af" x1="392.31" y1="121.04" x2="389.53" y2="123.07"/><path class="b7527aeb-b8ff-432b-b77f-e4f0ac1229af" d="M363.54,94.48v29.77s-6.12,1.17-10.28-1.18"/><path class="b7527aeb-b8ff-432b-b77f-e4f0ac1229af" d="M373.53,113.09s-.11,6.89,0,10.94"/><path class="b7527aeb-b8ff-432b-b77f-e4f0ac1229af" d="M359.09,86.44c1.13,3.8,6.73,3.37,8.35.29"/><circle class="b7527aeb-b8ff-432b-b77f-e4f0ac1229af" cx="362.54" cy="98.16" r="0.48"/><circle class="b7527aeb-b8ff-432b-b77f-e4f0ac1229af" cx="362.54" cy="105.84" r="0.48"/><path class="b7527aeb-b8ff-432b-b77f-e4f0ac1229af" d="M363,113.52a.47.47,0,0,1-.48.48.48.48,0,0,1-.48-.48.49.49,0,0,1,.48-.48A.48.48,0,0,1,363,113.52Z"/><line class="b173dbf8-df89-457c-8381-641ce2ccb925" x1="363.72" y1="136.67" x2="359.8" y2="133.39"/><path class="b173dbf8-df89-457c-8381-641ce2ccb925" d="M367.44,129.83s2.66,2.86,5.17,3.56"/><path class="b173dbf8-df89-457c-8381-641ce2ccb925" d="M355.54,129.83s-.52,2.84-2.28,3.56"/><line class="b173dbf8-df89-457c-8381-641ce2ccb925" x1="352.83" y1="137.23" x2="350.7" y2="162.55"/><line class="b173dbf8-df89-457c-8381-641ce2ccb925" x1="350.7" y1="164.54" x2="350.7" y2="187.59"/><path class="b34e5df9-79d5-45c9-93bd-ed1d4df7fe67" d="M354.75,187.37a12.88,12.88,0,0,1-3.46.45,16.61,16.61,0,0,0-1.86-.23s-1.85,4-3.79,4.94S339,195,339.52,196.9s6,1.35,8,.39,7-1.09,7.55-3S354.54,188.33,354.75,187.37Z"/><path class="b607e912-391a-4c26-8140-fd666fe3aed6" d="M355.11,193.32c-.52,1.92-5.55,2.05-7.55,3s-7.15,1.48-8-.23a1.16,1.16,0,0,0-.07.8c.55,1.91,6,1.35,8,.39s7-1.09,7.55-3a4,4,0,0,0,.08-1.41A2.11,2.11,0,0,1,355.11,193.32Z"/><path class="b34e5df9-79d5-45c9-93bd-ed1d4df7fe67" d="M368.45,185.81a12.86,12.86,0,0,0,3.45.45,18.23,18.23,0,0,1,1.87-.24s1.85,4,3.79,4.95,6.67,2.46,6.12,4.37-6,1.35-8,.39-7-1.09-7.56-3S368.65,186.76,368.45,185.81Z"/><path class="b607e912-391a-4c26-8140-fd666fe3aed6" d="M368.08,191.76c.53,1.92,5.56,2.05,7.56,3s7.14,1.47,8-.23a1.11,1.11,0,0,1,.08.8c-.55,1.91-6,1.35-8,.39s-7-1.09-7.56-3a4.26,4.26,0,0,1-.08-1.41A3,3,0,0,0,368.08,191.76Z"/><path class="a031b544-cd55-442c-a90b-ac74a6cefad2" d="M356.13,111.18s1.77.74,2.23.57a11.62,11.62,0,0,1,1.58-.37,11.48,11.48,0,0,1,2-.64,13.18,13.18,0,0,0,1.73.6c.41,0,1.24-.06,1.21.24s-.75.55-.75.55.37,0,.44.3a.68.68,0,0,1-.17.75s.35.25.34.48a.91.91,0,0,1-.31.73.81.81,0,0,1,.07.6.89.89,0,0,1-.63.55s0,.58-.37.69a2.43,2.43,0,0,1-1,0,13.4,13.4,0,0,1-4.52-1.49,9.28,9.28,0,0,0-3.35-1.24Z"/><path class="f44db340-48dd-48cb-a92b-a5d3c25e9dce" d="M350.27,108.07l-1.55,4.56s8.39,2.51,9.73,2.78a7.83,7.83,0,0,0,1.71-4.15Z"/><path class="b7527aeb-b8ff-432b-b77f-e4f0ac1229af" d="M352.64,109l7.16,2.4s-.11,3-1.25,3.37"/><path class="b7527aeb-b8ff-432b-b77f-e4f0ac1229af" d="M358.17,111.86s.21,2.13-1.12,2.46"/><ellipse class="b0b2feef-1071-4b1c-a37f-6b66b7f2b0bc" cx="45.53" cy="439.24" rx="25.53" ry="4.22"/><ellipse class="b0b2feef-1071-4b1c-a37f-6b66b7f2b0bc" cx="198.99" cy="438.52" rx="34.25" ry="5.66"/><ellipse class="b0b2feef-1071-4b1c-a37f-6b66b7f2b0bc" cx="231.38" cy="435.87" rx="29.97" ry="4.85"/><path class="a51541b6-bf43-4f87-9d58-f7fe30d00ba7" d="M83.84,268.58H206.22v68a128.37,128.37,0,0,0,37.6,90.77l.37.37H46.24A128.35,128.35,0,0,0,83.84,337Z"/><path class="aec09d01-7726-44e4-af55-73fedb7fe685" d="M216.42,340.06l2.46,2.08,4.82-3.81s-2.48-1.29-3-3.2C220.73,335.13,216.69,338.65,216.42,340.06Z"/><path class="a031b544-cd55-442c-a90b-ac74a6cefad2" d="M207.15,336.5v0c-7-7.51.8-10.55.8-10.55,2.29-1.4,7.63-2.38,9.27.53s5.8,8.27,2.82,12.91c-2.51,3.91-4.44,4.82-9.43.45a1.92,1.92,0,0,1-.91.29C208.57,340.22,207.15,336.5,207.15,336.5Z"/><path class="b34e5df9-79d5-45c9-93bd-ed1d4df7fe67" d="M246.61,430.37a12.88,12.88,0,0,1-3.46.45,17.87,17.87,0,0,0-1.86-.24s-1.85,4-3.79,4.95-6.67,2.46-6.12,4.37,6,1.35,8,.39,7-1.09,7.56-3S246.41,431.32,246.61,430.37Z"/><path class="b607e912-391a-4c26-8140-fd666fe3aed6" d="M247,436.32c-.53,1.92-5.56,2.05-7.56,3s-7.14,1.47-8-.23a1.11,1.11,0,0,0-.08.8c.55,1.91,6,1.35,8,.39s7-1.09,7.56-3a4.26,4.26,0,0,0,.08-1.41A3,3,0,0,1,247,436.32Z"/><path class="b34e5df9-79d5-45c9-93bd-ed1d4df7fe67" d="M229.77,426.37a12.86,12.86,0,0,1-3.45.45,15.44,15.44,0,0,0-1.87-.24s-1.85,4-3.78,4.94-6.68,2.47-6.13,4.37,6,1.35,8,.39,7-1.08,7.56-3S229.57,427.32,229.77,426.37Z"/><path class="b607e912-391a-4c26-8140-fd666fe3aed6" d="M230.14,432.31c-.53,1.93-5.56,2.05-7.56,3s-7.14,1.48-8-.23a1.17,1.17,0,0,0-.08.8c.55,1.91,6,1.35,8,.39s7-1.08,7.56-3a4.24,4.24,0,0,0,.08-1.41A3,3,0,0,1,230.14,432.31Z"/><path class="b34e5df9-79d5-45c9-93bd-ed1d4df7fe67" d="M250.32,375.43c2.11-5.11,1.21-11.72,1.21-11.72s-13.83,2.7-15.34,3.9-12.32,21.65-14.43,29.47,1.2,31.27,1.2,31.27,6.78-.49,7.68-.79c0,0-2.5-22.35,2.25-29.58C238.33,389.69,248.22,380.54,250.32,375.43Z"/><path class="afe2e780-2b70-47d6-ad57-793292549aca" d="M251.63,373.13c.6-6.32-.9-9-.9-9l-14.44,2.4s-3,12-4.81,18,0,23.45,2.41,30.07,5.49,18.79,5.49,18.79l8-1s-6.62-26.53-6.32-33.15S251,379.44,251.63,373.13Z"/><path class="a031b544-cd55-442c-a90b-ac74a6cefad2" d="M194.53,343.5c1.31,1.17,5.48.57,5.85.9a10.43,10.43,0,0,1,1,1.35l2.82-1.47s-.58-2.58-.88-3.41-2-3.05-2.81-4.54-1-2.48-1.18-2.49a1.54,1.54,0,0,0-1.06,1.93c.44,1.25,1.21,2.75,1.12,2.79s-5.43.32-6,1.1S193.22,342.34,194.53,343.5Z"/><path class="fc6d2b31-f018-4a61-93c0-88c57c9258c1" d="M225.73,351.33l-5.58-7.86s-4.67,7.61-7.84,8.18c-3.68.65-7.15-8.67-7.15-8.67l-4.71,2.29s4.23,11.09,8.51,13.09S225.73,351.33,225.73,351.33Z"/><path class="fc6d2b31-f018-4a61-93c0-88c57c9258c1" d="M223.12,336.31c-.92.14-3.73,3.81-4.41,5.08s.49,3.61.49,3.61l7.33-7.54S224,336.18,223.12,336.31Z"/><path class="ada8d5ef-8b26-4cb8-aa3a-2692c4f993fe" d="M233.35,373c.3.57,7.13,0,12.34-2.82s6.28-5.7,6.28-5.7-8-15.12-13.65-20.82-10.26-9.08-15.32-5.2c0,0-4.84,3.76-4.32,7.71s7.14,10.6,9.74,15.19S233.05,372.43,233.35,373Z"/><path class="b0707d7c-5173-4fc1-b293-5e32402c8b3a" d="M221.08,332.93c.32-3.33-.69-7.29-3.54-9.35-2.25-1.63-5.2-1.2-7.52.06a12,12,0,0,0-3.12,2.5c-1,1.08-2,2.45-3.51,2.89-2.79.83-2.33,2.43-1.48,3.41s2,0,2,0-.56,2.23.5,3.23,2.44-2,2.44-2c1.72.85,2.66.87,3.27.6h.15l0-.06c.6-.31.86-.92,1.31-1.19.89-.54,3.87.51,3.87.51l-.18-.23c-.29-.4-.77-1.25-.32-1.9a1.63,1.63,0,0,1,2.66.44,8.32,8.32,0,0,1,.37,2.16,4,4,0,0,0,1.85,1,8.35,8.35,0,0,0,2-.12A2.09,2.09,0,0,1,221.08,332.93Z"/><path class="fc70d6cb-cd63-498b-a19f-e92350cb7933" d="M241.26,374.42a6.33,6.33,0,0,0,5.86,2.25"/><path class="fc70d6cb-cd63-498b-a19f-e92350cb7933" d="M235.3,377.46s-4.55,12.69-2.72,22S240,431.77,240,431.77"/><path class="b7527aeb-b8ff-432b-b77f-e4f0ac1229af" d="M219.73,342.14a18.34,18.34,0,0,1,4.59-4.55"/><path class="b7527aeb-b8ff-432b-b77f-e4f0ac1229af" d="M228.65,360.06s4.89,10.15,5.27,12.2c0,0,9.28-.83,13.2-4.83"/><polyline class="b958eeb8-dc6c-490d-a770-37670e32d072" points="174.68 437.2 197.88 377.17 200.11 377.17 223.96 436.94"/><line class="b958eeb8-dc6c-490d-a770-37670e32d072" x1="198.99" y1="377.17" x2="198.99" y2="441.93"/><rect class="b34e5df9-79d5-45c9-93bd-ed1d4df7fe67" x="195.13" y="375.03" width="7.47" height="1.75"/><line class="b958eeb8-dc6c-490d-a770-37670e32d072" x1="198.99" y1="375.03" x2="198.99" y2="351.33"/><rect class="b34e5df9-79d5-45c9-93bd-ed1d4df7fe67" x="196.98" y="373.74" width="3.83" height="1.29"/><path class="b34e5df9-79d5-45c9-93bd-ed1d4df7fe67" d="M198.4,340.71h.81a.73.73,0,0,0,.73-.72V333.2a.75.75,0,0,0-.15-.43L198.42,331a.74.74,0,0,0-.58-.28H194a.73.73,0,0,0-.73.72v5.78a.73.73,0,0,0,.73.73h3a.73.73,0,0,1,.73.72V340A.72.72,0,0,0,198.4,340.71Z"/><path class="b34e5df9-79d5-45c9-93bd-ed1d4df7fe67" d="M184.33,342.9l-4.44-.55v.4l2.35.91a.42.42,0,0,1,0,.84l-2,.3a.43.43,0,0,0-.36.42v1.16h0a.43.43,0,0,0,.1.28.4.4,0,0,0,.26.14l2,.3a.43.43,0,0,1,0,.85l-2.35.91v.47l4.44-.55a.42.42,0,0,0,.42-.43v-5A.42.42,0,0,0,184.33,342.9Z"/><rect class="b34e5df9-79d5-45c9-93bd-ed1d4df7fe67" x="197.73" y="339.99" width="2.21" height="11.89"/><rect class="b34e5df9-79d5-45c9-93bd-ed1d4df7fe67" x="184.25" y="343.23" width="13.47" height="5.41"/><rect class="b34e5df9-79d5-45c9-93bd-ed1d4df7fe67" x="193.69" y="342.54" width="2.29" height="6.6"/><rect class="b34e5df9-79d5-45c9-93bd-ed1d4df7fe67" x="187.88" y="342.54" width="3.47" height="6.6"/><rect class="b34e5df9-79d5-45c9-93bd-ed1d4df7fe67" x="192.31" y="330.1" width="1.91" height="8.24"/><path class="a031b544-cd55-442c-a90b-ac74a6cefad2" d="M187.86,348.91c-.3.16,1.23,1.41,2.39,1.6s2.56,0,3.12.35,1.78,1.16,1.78,1.16l1.76-3.16a13.37,13.37,0,0,1-1.94-1.65,9.68,9.68,0,0,0-1.59-2.61c-.62-.43-2.45-2.14-2.86-2.06s-.69.9,0,1.86,2,2.24,1.9,2.54S188.16,348.75,187.86,348.91Z"/><path class="ada8d5ef-8b26-4cb8-aa3a-2692c4f993fe" d="M229.64,349.76c3.81-2.5,3.59-5.86.67-8.82-3.19-3.24-7.6,1.6-7.6,1.6s-6.58,8.92-10.23,10-15.54-4.5-15.54-4.5l-3,4.68s12.37,8.39,19.5,6.47S227.58,351.11,229.64,349.76Z"/><path class="b7527aeb-b8ff-432b-b77f-e4f0ac1229af" d="M223.36,354.3s7.55-4.54,8.52-6.75"/><polygon class="a10ab36a-c37d-4d2e-a4df-def85736f8ad" points="82.92 327.38 50.56 329.46 50.56 282.9 82.92 284.99 82.92 327.38"/><path class="b34e5df9-79d5-45c9-93bd-ed1d4df7fe67" d="M50.56,282.9v46.56l-5.48-16.33a24.05,24.05,0,0,1,.23-15.91Z"/><line class="b958eeb8-dc6c-490d-a770-37670e32d072" x1="47.2" y1="313.94" x2="47.2" y2="441.01"/><polyline class="b958eeb8-dc6c-490d-a770-37670e32d072" points="34.39 441.01 47.2 406.74 59.46 441.01"/><path class="b34e5df9-79d5-45c9-93bd-ed1d4df7fe67" d="M43.55,309.69h0a2,2,0,0,1-2-2V306a2,2,0,0,1,2-2h0a2,2,0,0,1,2,2v1.68A2,2,0,0,1,43.55,309.69Z"/><ellipse class="f897fa92-4820-4739-a1c3-253cfca401d2" cx="144.93" cy="417.48" rx="29.98" ry="4.85"/><path class="b34e5df9-79d5-45c9-93bd-ed1d4df7fe67" d="M154,406.69a12.86,12.86,0,0,0,3.45.45,15.44,15.44,0,0,1,1.87-.24s1.85,4,3.79,4.94,6.67,2.47,6.12,4.37-6,1.35-8,.39-7-1.08-7.56-3S154.17,407.64,154,406.69Z"/><path class="b607e912-391a-4c26-8140-fd666fe3aed6" d="M153.6,412.63c.53,1.93,5.56,2.05,7.56,3s7.14,1.48,8-.23a1.11,1.11,0,0,1,.08.8c-.55,1.91-6,1.35-8,.39s-7-1.08-7.56-3a4.24,4.24,0,0,1-.08-1.41A3,3,0,0,0,153.6,412.63Z"/><path class="b34e5df9-79d5-45c9-93bd-ed1d4df7fe67" d="M135.74,406.69a12.86,12.86,0,0,1-3.45.45,15.44,15.44,0,0,0-1.87-.24s-1.85,4-3.79,4.94-6.67,2.47-6.12,4.37,6,1.35,8,.39,7-1.08,7.56-3S135.54,407.64,135.74,406.69Z"/><path class="b607e912-391a-4c26-8140-fd666fe3aed6" d="M136.11,412.63c-.53,1.93-5.56,2.05-7.56,3s-7.14,1.48-8-.23a1.11,1.11,0,0,0-.08.8c.55,1.91,6,1.35,8,.39s7-1.08,7.56-3a4.24,4.24,0,0,0,.08-1.41A3,3,0,0,1,136.11,412.63Z"/><path class="b2b10bb0-61d1-45a6-9ab6-45f33976a0f1" d="M156.35,353c.06-.6-.58-6.4-1-10.36v-.13c-.12-1-.21-3.67-.28-4.3l-20.2-.19c-.08.56-.92,3.41-1,4.4,0,.24-.07.49-.1.75-1,7.31-2.49,20.79-2.91,27-.47,6.92-.29,10.05-.46,11.2-.12.79-1.13,26.7-1.13,26.7s4.84,1.5,6.87.3c0,0,2.94-25.24,3.59-27.37s3.35-25.21,4.16-25.3,5.82,21.25,6,24,2.86,27.92,3.79,28.39,6.85.57,7.13-.35c0,0-2.42-25.35-2.42-28.13S156.26,354,156.35,353Z"/><path class="a031b544-cd55-442c-a90b-ac74a6cefad2" d="M122.58,325.89c2.94,4.09,7.15,8.87,7.15,8.87l4.07-.62s-2.82-6.68-4.2-9.07c-.38-.66-.86-1.49-1.28-2.28A8.48,8.48,0,0,0,122.58,325.89Z"/><path class="b34e5df9-79d5-45c9-93bd-ed1d4df7fe67" d="M128.1,306.72a51.46,51.46,0,0,0-6.08,8.85c-.8,1.44-2.26,3.45-2.25,5.17,0,1,1.23,2.95,2.81,5.15a8.48,8.48,0,0,1,5.74-3.1,9.53,9.53,0,0,1-1.12-2.47c.1-.32,5-7.91,5.72-8.5a17.57,17.57,0,0,0,3.42-3.84,10,10,0,0,0,1.3-4.29C133.7,300.06,128.1,306.72,128.1,306.72Z"/><path class="a031b544-cd55-442c-a90b-ac74a6cefad2" d="M162.22,325.75c-1.66,2.29-6.23,8.78-6.23,8.78l3.46,1.46s3.94-3.66,7.15-7.17A9.68,9.68,0,0,0,162.22,325.75Z"/><path class="b34e5df9-79d5-45c9-93bd-ed1d4df7fe67" d="M168.46,314.51c-.42-.72-1.07-1.9-1.63-2.82a50.11,50.11,0,0,0-3-4.73s-5-7.14-9.22-3.89a9.94,9.94,0,0,0,.9,4.39,17.36,17.36,0,0,0,3.06,4.14c.67.65,6,9.57,6.07,9.9s-1.23,2.58-2.34,4.15l-.07.1a9.68,9.68,0,0,1,4.38,3.07c2.12-2.33,3.93-4.6,4-5.69A16.63,16.63,0,0,0,168.46,314.51Z"/><path class="b94d8bd2-62ca-4d59-994d-cd5c100189e1" d="M150.36,299.33s1.17.26-3.8,4.92c0,0-3.45-3.83-3.33-4.47S150.36,299.33,150.36,299.33Z"/><path class="b34e5df9-79d5-45c9-93bd-ed1d4df7fe67" d="M160.94,303.87,157,316.94c-.12.41-.27.91-.43,1.53A49.65,49.65,0,0,0,155,328c-.14,2.59,0,10.84,0,10.85,0,2.06-8.79,1.66-10,1.66-2.84,0-11.07,1.31-10.84-3.45.71-14.84,0-17.47-.2-21,0,0-.44-7.21-1.27-12.87,2.41-.9,12-3.89,12-3.89l5.58.06S158.37,301.44,160.94,303.87Z"/><path class="aec09d01-7726-44e4-af55-73fedb7fe685" d="M150.34,299.29a20.15,20.15,0,0,1-.12-4.05s-6.62-1.76-6.45-.46a26.42,26.42,0,0,1-.36,4.81l-.48.21s.78,3.18,3.43,3.37,4.15-2.52,4.36-3.75Z"/><path class="a031b544-cd55-442c-a90b-ac74a6cefad2" d="M147.94,281.16s5.2.88,4.32,9-5.48,7.43-5.78,7.42-4.62.09-4.85-9.87C141.63,287.74,141.56,280.38,147.94,281.16Z"/><path class="a031b544-cd55-442c-a90b-ac74a6cefad2" d="M152.37,287.88s.57-.6.78,0-.93,3.37-.85,3.49-.11.24-.25.11A31,31,0,0,1,152.37,287.88Z"/><path class="a031b544-cd55-442c-a90b-ac74a6cefad2" d="M141.69,287.67s-.55-.63-.78,0,.6,3.35.71,3.52c0,0,.18.28.32.16A30.21,30.21,0,0,0,141.69,287.67Z"/><path class="b0707d7c-5173-4fc1-b293-5e32402c8b3a" d="M152.7,287.19c-.18,1.12-.35,1.95-.35,1.95l-.76,1a19.17,19.17,0,0,0-.07-2.53c0-.13-.09-.36-.15-.61a10.29,10.29,0,0,0-.23-1c-.1-.25-4.46-1.52-8.35.27,0,0,0,.34,0,.71s0,.93-.25,1c-.37.14-.22,2.56-.22,2.56l-.6-.7s-.18-1.27-.35-2.72h0l-.12-1c-.08-1.46.06-4.12,2-5.68,1.28-.55,3-1.11,6.41-.06a3.35,3.35,0,0,1,2,.45C153.75,283.08,152.7,287.19,152.7,287.19Z"/><path class="b0707d7c-5173-4fc1-b293-5e32402c8b3a" d="M152.08,279.94s1.77,6.34-3.57,7.43-8.68-.33-8.25-2.08,1.27-1.45,1.27-1.45-1.72-2.4,0-2.78.47-2.48,3.91-2.1S151.24,277.92,152.08,279.94Z"/><line class="fc70d6cb-cd63-498b-a19f-e92350cb7933" x1="146.29" y1="305.32" x2="146.29" y2="337.39"/><path class="fc70d6cb-cd63-498b-a19f-e92350cb7933" d="M135.27,338.06s11,2.32,18.39,0"/><line class="fc70d6cb-cd63-498b-a19f-e92350cb7933" x1="158.56" y1="311.6" x2="156.33" y2="307.57"/><line class="fc70d6cb-cd63-498b-a19f-e92350cb7933" x1="133.66" y1="311.16" x2="135.96" y2="308.34"/><path class="fc70d6cb-cd63-498b-a19f-e92350cb7933" d="M142.43,300.74a3.46,3.46,0,0,0,3.66,3.51"/><path class="aeb718de-9e29-4036-9dbe-2c3dc8e1e531" d="M150.52,343.8s-.42,2.84,4.08,5.24"/><path class="aeb718de-9e29-4036-9dbe-2c3dc8e1e531" d="M138.86,343.8a8.47,8.47,0,0,1-4,5.24"/><line class="aeb718de-9e29-4036-9dbe-2c3dc8e1e531" x1="143.79" y1="355.73" x2="141.99" y2="352.06"/><polyline class="aeb718de-9e29-4036-9dbe-2c3dc8e1e531" points="155.44 354.5 157.63 384.56 159.46 406.69"/><path class="a031b544-cd55-442c-a90b-ac74a6cefad2" d="M153.06,341.06c1.19-.19,4.55-.58,4.73-.76a19.75,19.75,0,0,0,1.62-4.34c.15-.92-3.42-1.43-3.42-1.43l-1.25,1.39s-.56.32-1.09.59a7.58,7.58,0,0,0-1.94,2.51,9.51,9.51,0,0,0-.14,1,1,1,0,0,0,.48.95A1.47,1.47,0,0,0,153.06,341.06Z"/><path class="a031b544-cd55-442c-a90b-ac74a6cefad2" d="M135,341c.2,0,.59-1.11.59-1.11s.93-1,.8-1.58a9.66,9.66,0,0,0-.89-1.81l-1-.74-.63-1.57s-4.05.08-4.13.6a42.73,42.73,0,0,0,.38,4.76C130.11,340,134.77,341,135,341Z"/><ellipse class="b0b2feef-1071-4b1c-a37f-6b66b7f2b0bc" cx="304.79" cy="440.92" rx="29.98" ry="4.85"/><ellipse class="b0b2feef-1071-4b1c-a37f-6b66b7f2b0bc" cx="450.02" cy="452.61" rx="29.98" ry="4.85"/><path class="f42237e0-5ec8-4194-8b0b-68c199f8a440" d="M442.33,268.58H304.79V383a64,64,0,0,0,18.73,45.22H465.25l-9.93-9.94a46.37,46.37,0,0,1-13.59-33Z"/><path class="aec09d01-7726-44e4-af55-73fedb7fe685" d="M422.78,338.2c1.31,1.16,5.48.56,5.85.9a9.77,9.77,0,0,1,1,1.35l2.82-1.48s-.58-2.58-.88-3.41-2.05-3.05-2.81-4.54-1-2.48-1.18-2.49a1.54,1.54,0,0,0-1.06,1.94c.44,1.25,1.2,2.74,1.12,2.79s-5.43.32-6,1.1S421.47,337,422.78,338.2Z"/><path class="b34e5df9-79d5-45c9-93bd-ed1d4df7fe67" d="M454,346l-5.57-7.85s-4.67,7.6-7.84,8.17c-3.68.66-7.15-8.67-7.15-8.67L428.7,340s4.23,11.09,8.5,13.1S454,346,454,346Z"/><path class="b34e5df9-79d5-45c9-93bd-ed1d4df7fe67" d="M468.41,445.05a13,13,0,0,1-3.49,0,17.74,17.74,0,0,0-1.82-.45s-2.31,3.75-4.34,4.46-6.92,1.67-6.59,3.63,5.83,2,7.93,1.32,7.11-.25,7.86-2.1S468.09,446,468.41,445.05Z"/><path class="b607e912-391a-4c26-8140-fd666fe3aed6" d="M468.08,451c-.75,1.84-5.76,1.38-7.86,2.1s-7.27.63-7.88-1.16a1.1,1.1,0,0,0-.17.79c.32,1.95,5.83,2,7.93,1.32s7.11-.25,7.86-2.1a4.15,4.15,0,0,0,.25-1.39C468.17,450.72,468.13,450.86,468.08,451Z"/><path class="b34e5df9-79d5-45c9-93bd-ed1d4df7fe67" d="M448.86,445.05a13,13,0,0,1-3.49,0,17.07,17.07,0,0,0-1.82-.45s-2.3,3.75-4.34,4.46-6.91,1.67-6.59,3.63,5.83,2,7.94,1.32,7.11-.25,7.86-2.1S448.55,446,448.86,445.05Z"/><path class="b607e912-391a-4c26-8140-fd666fe3aed6" d="M448.53,451c-.75,1.84-5.76,1.38-7.86,2.1s-7.27.63-7.88-1.16a1.1,1.1,0,0,0-.17.79c.32,1.95,5.83,2,7.94,1.32s7.11-.25,7.86-2.1a4.43,4.43,0,0,0,.24-1.39C448.62,450.72,448.58,450.86,448.53,451Z"/><path class="aec09d01-7726-44e4-af55-73fedb7fe685" d="M450.19,321a5.51,5.51,0,0,0-5.12,1.85,2.24,2.24,0,0,0-.48,1.24c0,.13,0,.26,0,.39s-4.6,6.93-.92,6.53h0c0,.17-.08.33-.09.4a38.93,38.93,0,0,0-.49,4.05c0,.4.19.61.55.73a15.39,15.39,0,0,0,1.89.48c.16,0,1.92.17,1.92.16a4.62,4.62,0,0,1,.05,1.05v1.37h7.13V335C454.69,330.29,454.47,321.35,450.19,321Z"/><path class="b34e5df9-79d5-45c9-93bd-ed1d4df7fe67" d="M456,338.39s-3.37-2.08-8.88,0l-1.29,2.55,10.55-.57Z"/><path class="afe2e780-2b70-47d6-ad57-793292549aca" d="M460.67,342.7s-5.84-6.35-17.94-1.24l-2,39.15h22.66S464.47,358.21,460.67,342.7Z"/><path class="bd9d2f2b-8d47-4584-8ec4-5a07c76e3f28" d="M442.3,446.4a19.63,19.63,0,0,0,6.56.92s3.43-17.6,1.85-31.93l1.34-21.72s3.51,22.15,4.86,25.75,4.45,24.28,5.47,26.28,4.95.75,6,0c0,0-.22-21.2-4.23-29.94.36-13.82.6-27.2-.79-35.14H440.73Z"/><line class="ea56f3dc-546e-473e-9bff-397cd2addf3d" x1="442.9" y1="383.42" x2="443.72" y2="427.41"/><polyline class="ea56f3dc-546e-473e-9bff-397cd2addf3d" points="453.32 396.92 457.07 413.96 460.28 428.34"/><line class="ea56f3dc-546e-473e-9bff-397cd2addf3d" x1="452.05" y1="393.67" x2="456.8" y2="390.97"/><path class="b0707d7c-5173-4fc1-b293-5e32402c8b3a" d="M460.31,322c-1.57-5.36-6.31-5.67-8.62-5.58l-.15,0-.05,0c-8.05,0-8.82,4.8-8.89,5.89v.06c0,.1,0,.16,0,.16h0a1.05,1.05,0,0,0,.14.41,5,5,0,0,0,3.29,2,1,1,0,0,1,.79.84l.56,3.89.33-.92c.12-.32.26-1.13.61-1.24a1.29,1.29,0,0,1,1.74,1.44,2,2,0,0,1-1.93,1.65l.17,1a4.53,4.53,0,0,0,4.47,3.78h.42a1.16,1.16,0,0,1,1.06.7l.34.79.64-1.25a1.2,1.2,0,0,1,.33-.41c.3-.24.57-.49.85-.75l.06-.06c.24-.24.46-.48.67-.72C459.07,331.58,462,327.87,460.31,322Z"/><path class="fc70d6cb-cd63-498b-a19f-e92350cb7933" d="M442.9,357.62,442.18,378s14.73.52,16.47,0"/><path class="fc70d6cb-cd63-498b-a19f-e92350cb7933" d="M449.14,340s5.88-.77,8.35.66"/><path class="b34e5df9-79d5-45c9-93bd-ed1d4df7fe67" d="M416.84,337.51l.76-.29a.73.73,0,0,0,.42-.93L415.61,330a.65.65,0,0,0-.29-.36l-1.92-1.21a.74.74,0,0,0-.65-.06l-3.6,1.36a.73.73,0,0,0-.42.94l2,5.4a.72.72,0,0,0,.94.42l2.77-1.05a.73.73,0,0,1,.93.42l.49,1.28A.73.73,0,0,0,416.84,337.51Z"/><path class="b34e5df9-79d5-45c9-93bd-ed1d4df7fe67" d="M404.45,344.54l-4.34,1.06.14.37,2.53,0a.42.42,0,0,1,.48.26.42.42,0,0,1-.19.53l-1.75,1a.43.43,0,0,0-.19.52l.2.52.21.57h0a.47.47,0,0,0,.2.22.42.42,0,0,0,.29,0l2-.42a.42.42,0,0,1,.3.78l-1.88,1.69.17.44,4-2.09a.43.43,0,0,0,.25-.55l-.91-2.4-.88-2.3A.43.43,0,0,0,404.45,344.54Z"/><rect class="b34e5df9-79d5-45c9-93bd-ed1d4df7fe67" x="417.99" y="336.3" width="2.21" height="11.89" transform="translate(-94.11 170.81) rotate(-20.76)"/><rect class="b34e5df9-79d5-45c9-93bd-ed1d4df7fe67" x="405.03" y="342.32" width="13.47" height="5.41" transform="translate(-95.58 168.4) rotate(-20.76)"/><rect class="b34e5df9-79d5-45c9-93bd-ed1d4df7fe67" x="414.18" y="340.26" width="2.29" height="6.6" transform="translate(-94.83 169.57) rotate(-20.77)"/><rect class="b34e5df9-79d5-45c9-93bd-ed1d4df7fe67" x="408.7" y="342.12" width="3.47" height="6.6" transform="translate(-95.8 167.95) rotate(-20.76)"/><rect class="b34e5df9-79d5-45c9-93bd-ed1d4df7fe67" x="408.78" y="329.14" width="1.91" height="8.24" transform="translate(-91.53 166.89) rotate(-20.76)"/><path class="aec09d01-7726-44e4-af55-73fedb7fe685" d="M405.12,350.09c-.3.16,1.23,1.4,2.4,1.59s2.55,0,3.11.35,1.78,1.16,1.78,1.16l1.77-3.15a14,14,0,0,1-1.95-1.65,9.53,9.53,0,0,0-1.59-2.61c-.61-.44-2.45-2.14-2.86-2.07s-.69.9,0,1.87,2,2.23,1.89,2.54S405.42,349.92,405.12,350.09Z"/><path class="afe2e780-2b70-47d6-ad57-793292549aca" d="M446.91,350.93c3.8-2.49,3.58-5.86.67-8.81-3.2-3.25-7.6,1.59-7.6,1.59s-6.59,8.93-10.24,10-15.54-4.51-15.54-4.51l-3,4.69s12.37,8.39,19.5,6.46S444.84,352.28,446.91,350.93Z"/><path class="fc70d6cb-cd63-498b-a19f-e92350cb7933" d="M440.62,355.48s7.55-4.55,8.52-6.76"/><line class="b958eeb8-dc6c-490d-a770-37670e32d072" x1="304.21" y1="313.85" x2="304.21" y2="440.92"/><polyline class="b958eeb8-dc6c-490d-a770-37670e32d072" points="291.39 440.92 304.21 406.64 316.47 440.92"/><path class="b34e5df9-79d5-45c9-93bd-ed1d4df7fe67" d="M323.08,285.46,309.4,307.69h-3.14a3.35,3.35,0,0,0-3.35,3.36v2.85a3.35,3.35,0,0,0,3.35,3.36h4.17l17.78,18.13Z"/><polygon class="a10ab36a-c37d-4d2e-a4df-def85736f8ad" points="323.22 285.64 334.41 275.69 339.39 321.08 328.21 335.39 323.22 285.64"/><ellipse class="f8970b52-3801-42ee-8cb7-6a8291ab820b" cx="385.52" cy="413.98" rx="29.97" ry="4.85"/><path class="b0707d7c-5173-4fc1-b293-5e32402c8b3a" d="M368.9,305.85s-3.09-3,0-7.15,3.63-3.67,3.48-5.88-.56-12.6,6.93-12.71,8.87,14.22,8.1,18.16,2.39,7.34.89,8.46S368.9,305.85,368.9,305.85Z"/><path class="f44db340-48dd-48cb-a92b-a5d3c25e9dce" d="M371.14,349.44c.05.88.68,4.64,1.39,8.81h0c.21,1.2.42,2.43.62,3.64.45,2.63.87,5.15,1.15,7,.15,1,.26,1.76.31,2.23.31,3.1-1.18,7.69-2,11.59s.69,23.86.69,23.86c.93.61,5.54,0,5.54,0-.53-1.51,1.89-25.75,2.51-27.22a23.87,23.87,0,0,0,1.32-7.43,6.67,6.67,0,0,1,.06-1.36c.26-2.11,1.19-5.53,2-9.31,1-4.75.83-17,.72-18.06,0-.1,0-.25-.06-.42-.25-1.75-1.16-6.72-1.16-6.72a15.78,15.78,0,0,0-7.32-1.81,5.57,5.57,0,0,0-4.89,3.12C369.82,341.45,371.06,348.29,371.14,349.44Z"/><path class="f44db340-48dd-48cb-a92b-a5d3c25e9dce" d="M388.5,406.15l4.77.54c-.15-1.79.62-3.87,1-5.58.78-3.2,1.65-6.38,2.52-9.56,1.31-4.84,2.75-9.74,2.85-14.8s-1.57-10.34-2.55-15.42c-1.24-6.49-2.7-12.95-4.58-19.29-.72-2.44-1.24-4.11-1.24-4.11l-.19-.07c-1.44-.55-10.61-3.73-11.73,2.13a15.8,15.8,0,0,0-.15,4.71c.52,4.85,1.64,10.93,3.73,15.45,1.78,3.86,4.41,8.06,6.51,12,1.14,2.13,2.28,4.46,2,5.54-.72,3-1.52,5.64-1.81,15.64C389.59,396.55,388.5,406.15,388.5,406.15Z"/><path class="ada8d5ef-8b26-4cb8-aa3a-2692c4f993fe" d="M373.31,325.5c-.68,2.62-4.13,15.68-4,16.45,0,.29,4.06.84,7.75,1.37,6.15.88,14-1.33,16.71-2.86h0c-.06-.19-3.88-12.39-4.17-13.8s.22-6.76.33-8.27a10.2,10.2,0,0,1,.59-2.23h0a14.51,14.51,0,0,0,1.07-4.06A5.11,5.11,0,0,0,391,310h0a16.42,16.42,0,0,0-1.54-2.4c-.37-.5-.76-1-1.15-1.51a29.06,29.06,0,0,0-3.13-3.6,10.57,10.57,0,0,0-1.25-.88h0a7.32,7.32,0,0,0-1.15-.55h0l-.13,0-5.36-.69s-.56.2-1.36.46c-1,.32-2.32.74-3.38,1h0l-.47.11a5.35,5.35,0,0,0-1.85,1.33c-.91,1-1.86,2.51-1.83,5.63,0,2.76,3.62,9.29,4.19,11.32S374,322.88,373.31,325.5Z"/><path class="aec09d01-7726-44e4-af55-73fedb7fe685" d="M376.11,301s.05-6.34-.51-7.34,6.6,4.13,6.6,4.13,0,.25,0,.43,0,.06,0,.09a7.13,7.13,0,0,0,.07,1.18c0,.06,0,.13,0,.21a8,8,0,0,0,.7,2.44C383.75,303.72,376.11,301,376.11,301Z"/><path class="e0a5b884-c5f5-43cc-a146-83e1d6adebaf" d="M382.62,301.13s3.67,5.45,2.47,5.95-7.79-.51-10.67-5.7C374.42,301.38,378.56,299.17,382.62,301.13Z"/><path class="f727dab6-69f3-4bbd-b3b1-5f3fa0e5bd18" d="M389.93,320.36a.68.68,0,0,1,0-.12,0,0,0,0,0,0,0Z"/><path class="ada8d5ef-8b26-4cb8-aa3a-2692c4f993fe" d="M382.32,300.14s-.26,1.05-6.22-.68l-.26,1.35a16.76,16.76,0,0,0-2.91,1s10.86,9.92,12.42,5.78-2.6-6.45-2.6-6.45Z"/><path class="a031b544-cd55-442c-a90b-ac74a6cefad2" d="M378.78,281.1a7.21,7.21,0,0,1,5.56,3.45,12.15,12.15,0,0,1,1.25,8.8c-.41,2.2-1.48,4.8-4.06,4.91a5.63,5.63,0,0,1-5.42-3.44C374.52,291.35,371.66,280.53,378.78,281.1Z"/><path class="b0707d7c-5173-4fc1-b293-5e32402c8b3a" d="M373.8,284.28a7.64,7.64,0,0,0,.38,4.42s5-.3,5.7-4.27c0,0,2.49,4.78,6,5.59,0,0,.49-11.36-7.75-9.75A5.4,5.4,0,0,0,373.8,284.28Z"/><path class="a031b544-cd55-442c-a90b-ac74a6cefad2" d="M373,302.65c.55.07,2.8-.52,3,2.29a16.22,16.22,0,0,1-1.47,7.14c-.58,1.35-2.82,8.08-3.12,9.23s.09,2,.73,3.81,3.4,13.26,3.73,14l-2.79.45s-6.35-12.89-6.66-14.69a15.73,15.73,0,0,1,.38-6.52c.65-3.13,1.71-11,2.14-12.17S370.13,302.28,373,302.65Z"/><path class="a031b544-cd55-442c-a90b-ac74a6cefad2" d="M375.91,349.63a.43.43,0,0,0,.77.16,53.87,53.87,0,0,0-.63-5.5h0c.31,1.45,1.2,5.59,1.29,5.78s.66.1.7-.11-.59-4.69-.8-6.07l.08,0c.39,1.06,1.46,4,1.6,4.36s.46.4.63,0-1.16-4.44-1.42-5.22-1-2.46-.53-2.34,3,1.23,3.37.71-1.33-1-1.78-1.24a6.22,6.22,0,0,0-2.26-1c-1-.11-1.67-1.71-1.67-1.71l-2.65,1.31a9.05,9.05,0,0,0,.52,1.14c.17.26-.22,2.31.43,3.89,0,0,0,0,0,.07h0s.41,2.56.46,3.64.52.94.69.84.06-2.76,0-3.87h.07Z"/><path class="ada8d5ef-8b26-4cb8-aa3a-2692c4f993fe" d="M374.77,313.73s-4.33-1.94-7.43-1.79c0,0,.53-10.13,6.22-10C378.21,302.1,375.5,310.27,374.77,313.73Z"/><path class="fc70d6cb-cd63-498b-a19f-e92350cb7933" d="M384.34,362.91s1.69-7.83,1.35-12.41"/><path class="fc70d6cb-cd63-498b-a19f-e92350cb7933" d="M378.12,347.45a6.54,6.54,0,0,1-3.49,5.5"/><line class="fc70d6cb-cd63-498b-a19f-e92350cb7933" x1="391.57" y1="343.52" x2="398.21" y2="373.09"/><path class="fc70d6cb-cd63-498b-a19f-e92350cb7933" d="M398.78,376.15a85.7,85.7,0,0,1-2.29,11.93c-1.49,5-4,16.48-4,16.48"/><path class="a30c0f52-3baf-4907-aaea-3bad27b78947" d="M375.57,313s1-3.37.31-5.8"/><path class="a30c0f52-3baf-4907-aaea-3bad27b78947" d="M389.4,316.78s-6.36,1.26-10.28,0"/><path class="a30c0f52-3baf-4907-aaea-3bad27b78947" d="M388.14,326.72s1.37,9.27,3.43,12.71a33.71,33.71,0,0,1-9.73,2.23"/><path class="b34e5df9-79d5-45c9-93bd-ed1d4df7fe67" d="M388.54,404.66a12.88,12.88,0,0,0,3.46.45,17.87,17.87,0,0,1,1.86-.24s1.85,4,3.79,4.95,6.67,2.46,6.12,4.37-6,1.35-8,.39-7-1.09-7.56-3S388.74,405.61,388.54,404.66Z"/><path class="b607e912-391a-4c26-8140-fd666fe3aed6" d="M388.17,410.6c.53,1.93,5.56,2.06,7.56,3s7.14,1.47,8-.23a1.11,1.11,0,0,1,.08.8c-.55,1.9-6,1.35-8,.39s-7-1.09-7.56-3a4.28,4.28,0,0,1-.08-1.41A2.66,2.66,0,0,0,388.17,410.6Z"/><path class="b34e5df9-79d5-45c9-93bd-ed1d4df7fe67" d="M373.4,405.86a12.79,12.79,0,0,0,3.45.45,18.23,18.23,0,0,1,1.87-.24s1.84,4,3.78,4.95,6.67,2.46,6.12,4.37-6,1.35-8,.39-7-1.09-7.56-3S373.6,406.82,373.4,405.86Z"/><path class="b607e912-391a-4c26-8140-fd666fe3aed6" d="M373,411.81c.52,1.92,5.55,2.05,7.56,3s7.14,1.47,8-.23a1.16,1.16,0,0,1,.07.8c-.55,1.91-6,1.35-8,.39s-7-1.09-7.56-3a4,4,0,0,1-.08-1.41A2.11,2.11,0,0,0,373,411.81Z"/></g></svg>